<?xml version="1.0" encoding="utf-8"?>
<!-- Generator: Adobe Illustrator 15.0.0, SVG Export Plug-In . SVG Version: 6.00 Build 0)  -->
<!DOCTYPE svg PUBLIC "-//W3C//DTD SVG 1.1//EN" "http://www.w3.org/Graphics/SVG/1.1/DTD/svg11.dtd">
<svg version="1.1" id="Layer_1" xmlns="http://www.w3.org/2000/svg" xmlns:xlink="http://www.w3.org/1999/xlink" x="0px" y="0px"
	 width="695px" height="200px" viewBox="0 0 695 200" enable-background="new 0 0 695 200" xml:space="preserve">
<path fill="#663333" d="M337.416,189.745c0.961,3.091,1.63,6.542,2.055,10.255h18.486c4.954-40.102,18.771-52.318,18.771-52.318
	c-6.986,1.229-15.646,9.725-15.646,9.725c0.586-12.888,10.081-30.933,10.081-30.933c-15.764,12.42-20.561,33.687-20.561,33.687
	c-6.891-30.405-24.612-40.716-24.612-40.716c12.711,16.872,9.083,37.493,9.083,37.493c-13.786-11.248-28.199-7.967-28.199-7.967
	S326.623,155.063,337.416,189.745z"/>
<path fill="#8AC172" d="M377.753,70.753c-2.706-8.782-2.092-13.821-2.092-13.821c-15.188,9.626-30.947,25.338-33.305,42.243
	c-0.908,6.505,0.578,11.83,2.977,15.785c1.691,2.786,4.66,5.118,8.143,6.596c0.379-6.427,2.471-24.243,13.913-46.315
	c0,0-8.396,24.435-8.252,47.795c2.547,0.287,5.162,0.134,7.661-0.722c6.677-2.285,11.33-7.849,13.727-15.155
	C384.085,96.308,381.91,84.24,377.753,70.753z"/>
<path fill="#089164" d="M419.72,120.423c2.617-7.812,5.697-11.162,5.697-11.162c-16.095-0.923-35.788,2.29-46.339,13.375
	c-4.061,4.266-5.762,8.921-6.079,13.056c-0.225,2.914,0.72,6.164,2.485,9.062c3.635-4.485,14.468-16.373,34.339-26.476
	c0,0-18.886,13.415-30.987,30.512c1.707,1.539,3.692,2.795,5.96,3.477c6.059,1.824,12.355,0.202,17.921-3.869
	C410.979,142.351,415.7,132.423,419.72,120.423z"/>
<path fill="#BDDD7C" d="M415.202,76.642c0.09-5.735,1.428-8.608,1.428-8.608c-10.874,2.781-23.264,9.064-27.929,18.644
	c-1.795,3.687-1.941,7.134-1.281,9.945c0.466,1.98,1.778,3.938,3.56,5.488c1.467-3.743,6.149-13.914,17.204-24.807
	c0,0-9.703,12.883-14.129,26.777c1.457,0.662,3.039,1.076,4.688,1.052c4.404-0.067,8.241-2.472,11.075-6.346
	C414.025,93.035,415.065,85.451,415.202,76.642z"/>
<path fill="#286D57" d="M406.183,44.098c-0.527-5.711,0.495-8.712,0.495-8.712c-10.514,3.933-22.156,11.511-25.766,21.535
	c-1.389,3.858-1.164,7.301-0.206,10.025c0.676,1.919,2.19,3.725,4.129,5.074c1.056-3.878,4.618-14.493,14.44-26.51
	c0,0-8.264,13.851-11.172,28.14c1.52,0.501,3.137,0.744,4.773,0.542c4.371-0.539,7.928-3.341,10.33-7.498
	C406.772,60.522,406.992,52.871,406.183,44.098z"/>
<path fill="#9ED15D" d="M404.803,179.553c5.358-2.045,8.522-1.869,8.522-1.869c-6.618-9.065-17.051-18.238-27.678-19.015
	c-4.089-0.299-7.345,0.845-9.71,2.501c-1.666,1.167-2.997,3.112-3.774,5.343c4.019-0.027,15.202,0.545,29.42,6.769
	c0,0-15.564-4.229-30.109-3.183c-0.074,1.599,0.128,3.222,0.764,4.744c1.696,4.064,5.353,6.734,10.003,7.929
	C389.144,184.544,396.571,182.695,404.803,179.553z"/>
<path fill="#64BF4F" d="M430.923,157.637c3.479-2.771,5.859-3.387,5.859-3.387c-7.023-5.143-16.893-9.468-24.93-7.542
	c-3.092,0.74-5.229,2.352-6.588,4.132c-0.957,1.255-1.483,3.006-1.533,4.837c2.964-0.966,11.364-3.173,23.336-1.918
	c0,0-12.498,0.536-23.002,4.731c0.321,1.198,0.853,2.351,1.681,3.326c2.21,2.604,5.54,3.719,9.258,3.507
	C420.523,165.009,425.578,161.896,430.923,157.637z"/>
<path fill="#64BF4F" d="M369.061,41.441c-0.243-4.442,0.637-6.737,0.637-6.737c-8.264,2.743-17.507,8.278-20.596,15.943
	c-1.188,2.95-1.114,5.625-0.451,7.764c0.469,1.507,1.59,2.951,3.053,4.053c0.931-2.976,4.001-11.1,11.963-20.129
	c0,0-6.807,10.496-9.477,21.487c1.163,0.433,2.41,0.667,3.684,0.559c3.405-0.292,6.242-2.36,8.225-5.512
	C369.041,54.188,369.434,48.264,369.061,41.441z"/>
<path fill="#8CC375" d="M263.628,149.569c-5.482-3.877-9.122-4.597-9.122-4.597c10.139-8.356,24.635-15.727,36.909-13.52
	c4.724,0.85,8.084,3.093,10.284,5.657c1.55,1.809,2.495,4.4,2.729,7.155c-4.549-1.199-17.396-3.799-35.327-0.873
	c0,0,18.878-0.272,35.066,5.141c-0.38,1.834-1.081,3.615-2.243,5.156c-3.105,4.116-8.027,6.082-13.646,6.085
	C279.933,159.778,272.048,155.523,263.628,149.569z"/>
<path fill="#CFDD6B" d="M290.366,86.703c-1.101-8.165-3.497-12.036-3.497-12.036c15.981,2.122,34.719,8.981,42.997,21.853
	c3.186,4.953,3.98,9.846,3.515,13.967c-0.329,2.903-1.867,5.918-4.146,8.432c-2.726-5.089-11.13-18.802-28.746-32.462
	c0,0,16.025,16.729,24.696,35.795c-1.966,1.191-4.152,2.051-6.508,2.295c-6.293,0.651-12.173-2.126-16.873-7.172
	C294.826,109.883,292.057,99.244,290.366,86.703z"/>
<path fill="#077C5D" d="M322.32,51.344c2.189-5.742,2-9.132,2-9.132c9.715,7.086,19.547,18.259,20.383,29.643
	c0.322,4.381-0.901,7.87-2.675,10.404c-1.25,1.786-3.333,3.213-5.722,4.047c0.028-4.305-0.591-16.286-7.265-31.515
	c0,0,4.538,16.673,3.423,32.255c-1.712,0.08-3.451-0.136-5.082-0.816c-4.356-1.816-7.219-5.731-8.5-10.712
	C316.981,68.122,318.958,60.164,322.32,51.344z"/>
<path fill="#498C42" d="M284.446,43.2c-0.178-5.873-1.591-8.795-1.591-8.795c11.18,2.686,23.964,8.935,28.886,18.676
	c1.894,3.749,2.097,7.278,1.462,10.167c-0.447,2.036-1.762,4.061-3.563,5.675c-1.558-3.811-6.506-14.159-17.994-25.15
	c0,0,10.132,13.049,14.874,27.215c-1.481,0.7-3.096,1.148-4.785,1.147c-4.512-0.002-8.478-2.407-11.439-6.333
	C285.897,59.972,284.719,52.221,284.446,43.2z"/>
<path fill="#1D6E54" d="M255.614,111.818c-3.969-4.691-7.029-6.163-7.029-6.163c10.898-5.081,25.432-8.29,35.802-3.521
	c3.991,1.835,6.454,4.592,7.816,7.369c0.959,1.957,1.202,4.47,0.778,6.965c-3.756-2.104-14.544-7.353-31.102-8.869
	c0,0,16.79,4.085,29.894,12.591c-0.758,1.538-1.787,2.955-3.17,4.055c-3.695,2.937-8.506,3.55-13.486,2.265
	C267.722,124.601,261.71,119.023,255.614,111.818z"/>
<path fill="#BDDD7C" d="M259.689,80.893c-1.671-3.508-3.306-4.901-3.306-4.901c7.483-1.352,16.886-0.973,22.459,3.613
	c2.145,1.765,3.207,3.847,3.592,5.766c0.271,1.351,0.015,2.926-0.646,4.383c-1.958-1.892-7.709-6.838-17.589-10.432
	c0,0,9.609,5.202,16.251,12.513c-0.71,0.818-1.568,1.52-2.591,1.969c-2.732,1.2-5.772,0.801-8.611-0.788
	C265.034,90.659,262.256,86.28,259.689,80.893z"/>
<path fill="#248A4F" d="M328.681,26.502c0.246-3.878-0.505-5.89-0.505-5.89c7.195,2.458,15.228,7.361,17.867,14.079
	c1.016,2.585,0.931,4.921,0.335,6.785c-0.42,1.313-1.41,2.565-2.696,3.516c-0.791-2.605-3.411-9.724-10.296-17.669
	c0,0,5.866,9.217,8.115,18.836c-1.02,0.369-2.11,0.565-3.222,0.46c-2.971-0.28-5.433-2.107-7.141-4.875
	C328.603,37.634,328.304,32.458,328.681,26.502z"/>
<path fill="#1D6E54" d="M303.418,132.204c-1.754-3.441-3.414-4.782-3.414-4.782c7.4-1.54,16.753-1.412,22.413,2.997
	c2.178,1.697,3.288,3.739,3.722,5.634c0.305,1.336,0.092,2.908-0.526,4.374c-1.995-1.829-7.841-6.592-17.754-9.902
	c0,0,9.686,4.915,16.479,12.005c-0.685,0.832-1.519,1.552-2.523,2.025c-2.683,1.264-5.715,0.947-8.577-0.556
	C308.988,141.768,306.112,137.49,303.418,132.204z"/>
<path fill="#64BF4F" d="M299.626,178.276c-3.857,0.214-5.754,1.19-5.754,1.19c1.582-7.391,5.479-15.896,11.8-19.289
	c2.432-1.307,4.748-1.497,6.657-1.127c1.346,0.26,2.698,1.09,3.788,2.248c-2.479,1.087-9.198,4.509-16.233,12.237
	c0,0,8.41-6.872,17.641-10.221c0.484,0.963,0.805,2.016,0.832,3.126c0.073,2.965-1.442,5.611-3.974,7.621
	C310.624,177.048,305.549,177.949,299.626,178.276z"/>
<path fill="#1D6E54" d="M444.043,87.931c2.235-3.847,4.23-5.283,4.23-5.283c-8.412-2.242-19.178-2.69-25.968,2.022
	c-2.612,1.813-4.019,4.09-4.638,6.243c-0.437,1.517-0.292,3.338,0.326,5.063c2.411-1.976,9.438-7.082,21.049-10.259
	c0,0-11.451,5.037-19.716,12.759c0.734,1,1.648,1.881,2.772,2.489c3.006,1.625,6.514,1.453,9.9-0.093
	C437.029,98.575,440.608,93.839,444.043,87.931z"/>
<path fill="#BDDD7C" d="M436.763,127.089c3.128,0.255,4.764-0.322,4.764-0.322c-2.09,5.774-6.167,12.189-11.631,14.223
	c-2.102,0.782-3.987,0.68-5.483,0.172c-1.053-0.359-2.05-1.177-2.8-2.229c2.115-0.6,7.902-2.612,14.419-8.056
	c0,0-7.529,4.603-15.329,6.277c-0.283-0.828-0.426-1.712-0.325-2.608c0.271-2.395,1.781-4.356,4.042-5.695
	C427.774,126.862,431.959,126.697,436.763,127.089z"/>
<path opacity="0.8" fill-rule="evenodd" clip-rule="evenodd" fill="#64BF4F" d="M694.764,64.94H449.979
	c7.539,15.689,11.894,34.174,11.894,53.968c0,19.795-4.354,38.279-11.894,53.969h244.785V64.94z"/>
<path opacity="0.8" fill="#FFFFFF" d="M550.995,128.428l0.644-13.328c0.048-0.942,0.221-1.822,0.519-2.639
	c0.291-0.825,0.684-1.539,1.186-2.16c0.495-0.628,1.068-1.107,1.729-1.461c0.659-0.354,1.374-0.525,2.145-0.534h3.204v21.206h-10.65
	L550.995,128.428L550.995,128.428z M544.492,131.303c0.007,0.479,0.031,0.863,0.078,1.17s0.087,0.495,0.11,0.574h0.313h0.016l0,0
	h18.85c0.33,0,0.684,0.008,1.061,0.023s0.715,0.039,1.006,0.063c0.29,0.016,0.471,0.039,0.526,0.055
	c0.016-0.055,0.047-0.173,0.078-0.369c0.039-0.188,0.078-0.424,0.11-0.707c0.031-0.282,0.047-0.581,0.047-0.902
	c-0.008-0.479-0.039-0.888-0.103-1.218c-0.055-0.338-0.102-0.542-0.133-0.62c-0.056,0.016-0.188,0.039-0.417,0.055
	c-0.22,0.023-0.486,0.047-0.801,0.063s-0.629,0.023-0.95,0.023v-22.007c0-0.33,0.008-0.684,0.023-1.061s0.039-0.715,0.063-1.005
	c0.016-0.291,0.039-0.472,0.056-0.526c-0.676-0.047-1.32-0.078-1.94-0.103c-0.62-0.016-1.187-0.031-1.704-0.031
	c-0.511-0.008-0.95-0.008-1.304-0.008h-2.733c-1.226,0.008-2.364,0.268-3.401,0.77c-1.044,0.503-1.963,1.194-2.748,2.09
	c-0.793,0.888-1.422,1.924-1.886,3.095c-0.463,1.178-0.737,2.442-0.809,3.793l-0.668,13.163c-0.031,0.44-0.148,0.786-0.369,1.037
	c-0.212,0.251-0.463,0.432-0.754,0.55c-0.29,0.11-0.565,0.181-0.832,0.212c-0.268,0.023-0.464,0.039-0.597,0.031
	c-0.032,0.079-0.063,0.275-0.11,0.597C544.523,130.423,544.499,130.823,544.492,131.303L544.492,131.303L544.492,131.303z
	 M524.229,130.596c0,0.33-0.008,0.676-0.024,1.061c-0.016,0.377-0.039,0.715-0.063,1.005c-0.016,0.291-0.039,0.464-0.055,0.526
	c0.047-0.016,0.212-0.023,0.503-0.039c0.29-0.016,0.636-0.031,1.036-0.047c0.401-0.016,0.794-0.031,1.187-0.04
	c0.385-0.007,0.707-0.015,0.95-0.015h10.697c0.824,0.008,1.438-0.016,1.846-0.071c0.408-0.063,0.676-0.228,0.801-0.503
	c0.134-0.274,0.188-0.73,0.181-1.358c-0.008-0.479-0.039-0.864-0.102-1.171c-0.056-0.306-0.103-0.494-0.134-0.572
	c-0.063,0.016-0.235,0.039-0.526,0.055c-0.29,0.023-0.628,0.047-1.005,0.063c-0.386,0.016-0.739,0.023-1.061,0.023h-8.529
	c-0.338,0-0.676,0.008-1.014,0.024c-0.338,0.015-0.612,0.03-0.824,0.047v-9.967h5.654c0.322,0,0.676,0.008,1.045,0.023
	c0.377,0.016,0.707,0.039,0.989,0.063c0.283,0.016,0.456,0.04,0.511,0.055c0.031-0.078,0.087-0.274,0.157-0.597
	c0.078-0.313,0.118-0.715,0.125-1.193c0-0.322-0.022-0.621-0.063-0.911c-0.039-0.291-0.078-0.534-0.125-0.738
	c-0.048-0.196-0.079-0.322-0.095-0.377c-0.055,0.016-0.228,0.039-0.511,0.055c-0.282,0.023-0.612,0.048-0.989,0.063
	c-0.369,0.016-0.723,0.024-1.045,0.024h-4.948c-0.329,0-0.675,0.008-1.044,0.023s-0.684,0.031-0.942,0.047
	c-0.268,0.016-0.401,0.023-0.416,0.023c-0.024-0.023-0.04-0.047-0.063-0.07l1.76-0.637v-7.249c0.133,0.008,0.33,0.016,0.589,0.031
	s0.534,0.023,0.832,0.039c0.299,0.008,0.582,0.016,0.841,0.016h8.105c0.321,0,0.675,0.009,1.061,0.024
	c0.377,0.016,0.715,0.039,1.005,0.063c0.291,0.016,0.463,0.039,0.526,0.055c0.031-0.078,0.078-0.267,0.134-0.573
	c0.063-0.306,0.094-0.691,0.102-1.17c0.008-0.637-0.047-1.084-0.181-1.359c-0.125-0.274-0.393-0.439-0.801-0.502
	c-0.408-0.063-1.021-0.087-1.846-0.071h-10.65c-0.243,0-0.565-0.008-0.958-0.016s-0.793-0.023-1.202-0.039
	c-0.408-0.016-0.762-0.031-1.052-0.047c-0.291-0.016-0.464-0.032-0.511-0.039c0,0.007,0.008,0.102,0.023,0.282
	s0.031,0.408,0.047,0.684c0.016,0.274,0.031,0.565,0.047,0.863c0.017,0.299,0.024,0.566,0.024,0.81V130.596L524.229,130.596z
	 M501.09,130.219c0,0.322-0.008,0.676-0.023,1.045c-0.016,0.377-0.039,0.707-0.063,0.989c-0.016,0.283-0.039,0.456-0.055,0.511
	c0.016,0.008,0.047,0.008,0.078,0.008c0.039,0,0.086,0,0.142-0.008c0.754,0.008,1.555,0.031,2.411,0.079
	c0.855,0.039,1.712,0.086,2.576,0.141c0.855,0.055,1.665,0.103,2.427,0.142s1.421,0.063,1.979,0.063
	c1.422-0.008,2.733-0.204,3.936-0.597c1.201-0.385,2.246-0.942,3.134-1.673c0.888-0.723,1.586-1.595,2.073-2.6
	c0.495-1.014,0.746-2.137,0.754-3.378c-0.008-1.264-0.267-2.435-0.777-3.51c-0.519-1.068-1.249-2.012-2.199-2.805
	c-0.958-0.801-2.097-1.421-3.425-1.869c-1.327-0.439-2.804-0.667-4.437-0.675h-4.666v-6.354l-1.021-0.558
	c0.439-0.134,1.021-0.251,1.751-0.346c0.738-0.094,1.556-0.165,2.45-0.212c0.903-0.047,1.822-0.07,2.758-0.07
	c0.871,0,1.712,0.023,2.513,0.078c0.809,0.047,1.516,0.142,2.145,0.283c0.62,0.133,1.091,0.329,1.421,0.581l0.095-0.079v-4.634
	h-3.299c-0.456,0-1.084,0.016-1.869,0.048c-0.785,0.023-1.665,0.055-2.631,0.102c-0.967,0.039-1.948,0.078-2.938,0.126
	c-0.998,0.039-1.933,0.07-2.804,0.102c-0.872,0.031-1.61,0.048-2.207,0.048h-0.369c0.023,0.156,0.047,0.376,0.07,0.659
	s0.039,0.589,0.055,0.927c0.008,0.33,0.016,0.652,0.016,0.958V130.219L501.09,130.219z M504.954,129.371v-9.52h5.137
	c1.28,0.008,2.396,0.22,3.346,0.636c0.95,0.425,1.688,1.014,2.215,1.775s0.794,1.657,0.801,2.678
	c-0.007,0.747-0.181,1.422-0.526,2.027c-0.353,0.604-0.84,1.122-1.46,1.563c-0.62,0.432-1.344,0.77-2.168,1.006
	c-0.824,0.235-1.72,0.353-2.678,0.353c-0.448,0-0.943-0.023-1.477-0.063c-0.526-0.039-1.068-0.103-1.618-0.181
	C505.983,129.566,505.457,129.48,504.954,129.371L504.954,129.371z M570.41,130.596c0,0.33-0.008,0.676-0.023,1.061
	c-0.016,0.377-0.039,0.715-0.063,1.005c-0.017,0.291-0.039,0.464-0.056,0.526c0.048-0.016,0.212-0.023,0.503-0.039
	s0.636-0.031,1.037-0.047c0.4-0.016,0.793-0.031,1.186-0.04c0.385-0.007,0.707-0.015,0.95-0.015h10.697
	c0.825,0.008,1.438-0.016,1.846-0.071c0.409-0.063,0.676-0.228,0.802-0.503c0.133-0.274,0.188-0.73,0.181-1.358
	c-0.009-0.479-0.04-0.864-0.103-1.171c-0.055-0.306-0.103-0.494-0.134-0.572c-0.063,0.016-0.235,0.039-0.526,0.055
	c-0.29,0.023-0.628,0.047-1.005,0.063c-0.385,0.016-0.738,0.023-1.061,0.023h-8.529c-0.338,0-0.676,0.008-1.014,0.024
	c-0.337,0.015-0.612,0.03-0.824,0.047v-9.967h5.655c0.321,0,0.675,0.008,1.045,0.023c0.376,0.016,0.706,0.039,0.989,0.063
	c0.282,0.016,0.455,0.04,0.51,0.055c0.032-0.078,0.087-0.274,0.157-0.597c0.079-0.313,0.118-0.715,0.126-1.193
	c0-0.322-0.023-0.621-0.063-0.911c-0.039-0.291-0.079-0.534-0.126-0.738c-0.047-0.196-0.078-0.322-0.095-0.377
	c-0.055,0.016-0.228,0.039-0.51,0.055c-0.283,0.023-0.613,0.048-0.989,0.063c-0.37,0.016-0.724,0.024-1.045,0.024h-4.948
	c-0.33,0-0.676,0.008-1.045,0.023s-0.683,0.031-0.942,0.047c-0.267,0.016-0.4,0.023-0.416,0.023
	c-0.023-0.023-0.039-0.047-0.063-0.07l1.76-0.637v-7.249c0.134,0.008,0.33,0.016,0.589,0.031c0.26,0.016,0.534,0.023,0.833,0.039
	c0.298,0.008,0.581,0.016,0.84,0.016h8.105c0.322,0,0.676,0.009,1.061,0.024c0.377,0.016,0.715,0.039,1.005,0.063
	c0.291,0.016,0.464,0.039,0.526,0.055c0.031-0.078,0.079-0.267,0.134-0.573c0.063-0.306,0.094-0.691,0.103-1.17
	c0.008-0.637-0.048-1.084-0.181-1.359c-0.126-0.274-0.393-0.439-0.802-0.502c-0.408-0.063-1.021-0.087-1.846-0.071h-10.649
	c-0.244,0-0.566-0.008-0.959-0.016s-0.793-0.023-1.201-0.039s-0.762-0.031-1.053-0.047c-0.29-0.016-0.463-0.032-0.511-0.039
	c0,0.007,0.008,0.102,0.023,0.282s0.032,0.408,0.048,0.684c0.016,0.274,0.031,0.565,0.047,0.863c0.016,0.299,0.023,0.566,0.023,0.81
	V130.596L570.41,130.596z M591.098,115.139c0.008,1.563,0.369,2.93,1.084,4.093c0.707,1.162,1.696,2.058,2.969,2.701
	c1.28,0.645,2.772,0.975,4.477,0.981c0.534,0,1.147-0.031,1.854-0.094c0.699-0.055,1.445-0.126,2.239-0.204
	c0.785-0.078,1.586-0.149,2.388-0.22c0.801-0.071,1.563-0.11,2.301-0.134l-2.23,1.312v6.739c0,0.321-0.008,0.675-0.023,1.044
	c-0.016,0.377-0.04,0.707-0.063,0.99c-0.017,0.282-0.04,0.455-0.056,0.51c0.056,0.017,0.181,0.048,0.393,0.095
	c0.205,0.047,0.456,0.086,0.755,0.126c0.298,0.039,0.604,0.063,0.927,0.063c0.321,0,0.628-0.023,0.926-0.063
	c0.299-0.04,0.551-0.079,0.755-0.126c0.212-0.047,0.337-0.078,0.393-0.095c-0.017-0.055-0.039-0.228-0.056-0.51
	c-0.023-0.283-0.047-0.613-0.063-0.99c-0.016-0.369-0.023-0.723-0.023-1.044v-22.809c0-0.33,0.008-0.675,0.023-1.061
	c0.016-0.377,0.039-0.715,0.063-1.005c0.017-0.291,0.039-0.464,0.056-0.526c-0.056-0.016-0.181-0.047-0.393-0.078
	c-0.204-0.04-0.456-0.079-0.755-0.11c-0.298-0.031-0.604-0.047-0.926-0.047c-0.322,0-0.629,0.016-0.927,0.047
	c-0.299,0.031-0.55,0.07-0.755,0.11c-0.212,0.031-0.337,0.063-0.393,0.078c0.016,0.063,0.039,0.235,0.056,0.526
	c0.022,0.29,0.047,0.628,0.063,1.005c0.016,0.386,0.023,0.73,0.023,1.061v11.342c-0.542,0.141-1.139,0.267-1.799,0.385
	c-0.659,0.109-1.319,0.204-1.987,0.274c-0.659,0.071-1.271,0.11-1.821,0.11c-1.839-0.009-3.236-0.503-4.179-1.485
	c-0.95-0.981-1.422-2.418-1.43-4.312v-6.314c0-0.33,0.008-0.675,0.023-1.061c0.016-0.377,0.04-0.715,0.063-1.005
	c0.016-0.291,0.039-0.464,0.055-0.526c-0.055-0.016-0.181-0.047-0.393-0.078c-0.204-0.04-0.456-0.079-0.754-0.11
	c-0.299-0.031-0.605-0.047-0.927-0.047c-0.322,0-0.629,0.016-0.927,0.047c-0.299,0.031-0.55,0.07-0.755,0.11
	c-0.211,0.031-0.337,0.063-0.393,0.078c0.017,0.063,0.04,0.235,0.056,0.526c0.023,0.29,0.047,0.628,0.063,1.005
	c0.016,0.386,0.023,0.73,0.023,1.061V115.139L591.098,115.139z M615.603,130.313c0,0.321-0.008,0.675-0.023,1.06
	c-0.016,0.378-0.039,0.715-0.063,1.006c-0.016,0.29-0.039,0.464-0.055,0.526c0.055,0.016,0.181,0.047,0.393,0.078
	c0.205,0.039,0.456,0.071,0.755,0.103c0.298,0.039,0.604,0.055,0.926,0.055c0.322,0,0.629-0.016,0.928-0.055
	c0.298-0.031,0.549-0.063,0.753-0.103c0.213-0.031,0.338-0.063,0.394-0.078c-0.016-0.063-0.04-0.236-0.056-0.526
	c-0.023-0.291-0.047-0.628-0.063-1.006c-0.016-0.385-0.023-0.738-0.023-1.06v-8.789l-1.162-0.824h2.969l9.173,11.64
	c0.188,0.235,0.44,0.416,0.754,0.558c0.322,0.134,0.676,0.235,1.076,0.298c0.393,0.056,0.802,0.087,1.233,0.087
	c0.307,0,0.604-0.008,0.903-0.023c0.307-0.016,0.573-0.071,0.809-0.149c0.244-0.087,0.425-0.212,0.542-0.4
	c-0.047-0.056-0.165-0.181-0.346-0.377c-0.181-0.205-0.393-0.433-0.62-0.699c-0.235-0.268-0.455-0.526-0.667-0.77l-9.387-11.554
	l8.436-12.275c0.188-0.26,0.417-0.527,0.676-0.794c0.259-0.274,0.494-0.511,0.707-0.707c0.22-0.204,0.354-0.329,0.408-0.385
	c-0.118-0.188-0.291-0.322-0.534-0.408s-0.511-0.149-0.816-0.173c-0.307-0.023-0.605-0.031-0.911-0.031
	c-0.433,0-0.849,0.023-1.257,0.086c-0.4,0.056-0.762,0.149-1.084,0.291c-0.314,0.134-0.558,0.322-0.723,0.565l-8.152,12.253h-2.026
	v-10.227c0-0.322,0.008-0.675,0.023-1.045c0.016-0.377,0.039-0.706,0.063-0.989c0.016-0.282,0.04-0.456,0.056-0.511
	c-0.056-0.016-0.181-0.047-0.394-0.094c-0.204-0.047-0.455-0.087-0.753-0.126c-0.299-0.039-0.605-0.063-0.928-0.063
	c-0.321,0-0.628,0.023-0.926,0.063c-0.299,0.039-0.55,0.079-0.755,0.126c-0.212,0.047-0.338,0.078-0.393,0.094
	c0.016,0.055,0.039,0.229,0.055,0.511c0.024,0.283,0.048,0.612,0.063,0.989c0.016,0.37,0.023,0.723,0.023,1.045V130.313
	L615.603,130.313z M638.175,130.313c-0.055,0.235-0.117,0.502-0.181,0.793c-0.063,0.291-0.125,0.573-0.188,0.849
	c-0.055,0.274-0.102,0.494-0.141,0.675c-0.032,0.173-0.056,0.268-0.056,0.275c0.056,0.016,0.181,0.047,0.377,0.078
	c0.204,0.039,0.448,0.078,0.738,0.11c0.291,0.031,0.589,0.047,0.911,0.047s0.62-0.016,0.911-0.047
	c0.291-0.032,0.534-0.071,0.738-0.11c0.196-0.031,0.322-0.063,0.377-0.078v-0.188c0-0.165,0.008-0.385,0.031-0.66
	c0.023-0.283,0.048-0.573,0.095-0.888c0.039-0.306,0.094-0.597,0.157-0.855l1.264-5.043h11.806l1.256,5.043
	c0.063,0.259,0.118,0.55,0.157,0.855c0.048,0.314,0.071,0.604,0.095,0.888c0.023,0.275,0.031,0.495,0.031,0.66v0.188
	c0.055,0.016,0.181,0.047,0.377,0.078c0.204,0.039,0.447,0.078,0.738,0.11c0.29,0.031,0.589,0.047,0.911,0.047
	s0.62-0.016,0.911-0.047c0.29-0.032,0.534-0.071,0.738-0.11c0.196-0.031,0.321-0.063,0.377-0.078c0-0.008-0.023-0.103-0.056-0.275
	c-0.039-0.181-0.086-0.4-0.141-0.675c-0.063-0.275-0.126-0.558-0.188-0.849c-0.063-0.291-0.126-0.558-0.181-0.793l-3.911-16.117
	c-0.314-1.335-0.66-2.583-1.045-3.746c-0.377-1.162-0.833-2.191-1.351-3.07c-0.526-0.888-1.163-1.579-1.917-2.082
	c-0.746-0.494-1.649-0.754-2.709-0.762c-1.061,0.008-1.964,0.268-2.71,0.762c-0.754,0.503-1.391,1.194-1.917,2.082
	c-0.518,0.879-0.974,1.908-1.351,3.07c-0.385,1.163-0.73,2.411-1.045,3.746L638.175,130.313L638.175,130.313z M644.254,121.053
	l1.414-5.631c0.314-1.288,0.589-2.403,0.816-3.33c0.229-0.927,0.448-1.688,0.676-2.285c0.22-0.598,0.479-1.029,0.785-1.313
	c0.307-0.282,0.691-0.424,1.163-0.424c0.471,0,0.855,0.142,1.162,0.424c0.306,0.283,0.565,0.723,0.793,1.313
	c0.22,0.597,0.448,1.358,0.668,2.285c0.228,0.927,0.503,2.042,0.816,3.33l1.579,6.314h-8.875l-3.032,0.235l-0.039-0.094
	L644.254,121.053z"/>
<path opacity="0.8" fill-rule="evenodd" clip-rule="evenodd" fill="#64BF4F" d="M0.236,64.94h244.785
	c-7.539,15.689-11.894,34.174-11.894,53.968c0,19.795,4.354,38.279,11.894,53.969H0.236V64.94z"/>
<path opacity="0.8" fill="#FFFFFF" d="M195.141,130.596c0,0.33-0.008,0.676-0.024,1.061c-0.016,0.377-0.039,0.715-0.063,1.005
	c-0.016,0.291-0.039,0.464-0.055,0.526c0.047-0.016,0.212-0.023,0.503-0.039s0.636-0.031,1.037-0.047
	c0.401-0.016,0.793-0.031,1.186-0.04c0.385-0.008,0.707-0.016,0.95-0.016h10.697c0.825,0.008,1.438-0.016,1.846-0.07
	c0.409-0.063,0.676-0.228,0.801-0.503c0.133-0.275,0.188-0.73,0.181-1.358c-0.008-0.479-0.039-0.864-0.102-1.171
	c-0.055-0.306-0.103-0.494-0.134-0.573c-0.063,0.017-0.235,0.039-0.526,0.056c-0.29,0.023-0.628,0.047-1.005,0.063
	c-0.385,0.016-0.739,0.023-1.061,0.023h-8.529c-0.338,0-0.676,0.008-1.013,0.023c-0.338,0.016-0.613,0.031-0.825,0.047v-9.966h5.655
	c0.322,0,0.675,0.007,1.045,0.022c0.376,0.017,0.707,0.04,0.989,0.063c0.283,0.016,0.456,0.039,0.511,0.055
	c0.031-0.078,0.086-0.274,0.157-0.597c0.079-0.314,0.118-0.715,0.126-1.194c0-0.321-0.023-0.62-0.063-0.91
	c-0.039-0.291-0.079-0.534-0.125-0.738c-0.047-0.196-0.079-0.322-0.094-0.378c-0.055,0.016-0.228,0.04-0.511,0.056
	c-0.283,0.023-0.613,0.047-0.989,0.063c-0.37,0.016-0.723,0.023-1.045,0.023h-4.948c-0.33,0-0.676,0.008-1.044,0.023
	c-0.37,0.017-0.684,0.032-0.943,0.048c-0.267,0.016-0.401,0.023-0.417,0.023c-0.023-0.023-0.039-0.047-0.063-0.071l1.759-0.636
	v-7.249c0.133,0.008,0.33,0.016,0.589,0.031c0.259,0.016,0.534,0.023,0.833,0.039c0.299,0.008,0.582,0.016,0.841,0.016h8.105
	c0.322,0,0.675,0.008,1.061,0.023c0.377,0.017,0.715,0.039,1.005,0.063c0.291,0.016,0.463,0.039,0.526,0.055
	c0.031-0.079,0.079-0.268,0.134-0.573c0.063-0.307,0.094-0.691,0.102-1.171c0.008-0.636-0.047-1.083-0.181-1.358
	c-0.125-0.275-0.393-0.439-0.801-0.503c-0.408-0.063-1.021-0.086-1.846-0.07h-10.65c-0.243,0-0.565-0.008-0.958-0.016
	c-0.393-0.008-0.793-0.023-1.201-0.04c-0.409-0.015-0.762-0.031-1.053-0.047s-0.463-0.031-0.511-0.039
	c0,0.008,0.008,0.103,0.024,0.283s0.031,0.408,0.047,0.684c0.016,0.274,0.031,0.564,0.047,0.863
	c0.016,0.299,0.024,0.565,0.024,0.809V130.596L195.141,130.596z M179.071,130.313c0,0.322-0.008,0.676-0.023,1.061
	c-0.016,0.377-0.04,0.715-0.063,1.006c-0.016,0.29-0.04,0.463-0.055,0.525c0.055,0.017,0.181,0.048,0.393,0.079
	c0.204,0.039,0.456,0.07,0.754,0.103c0.298,0.039,0.605,0.055,0.927,0.055c0.322,0,0.628-0.016,0.927-0.055
	c0.299-0.032,0.55-0.063,0.754-0.103c0.211-0.031,0.337-0.063,0.393-0.079c-0.016-0.063-0.039-0.235-0.055-0.525
	c-0.023-0.291-0.047-0.629-0.063-1.006c-0.016-0.385-0.024-0.738-0.024-1.061v-21.395c-0.439-0.204-0.88-0.408-1.327-0.612h6.841
	c0.33,0,0.675,0.008,1.06,0.023c0.377,0.017,0.715,0.039,1.005,0.063c0.291,0.016,0.463,0.039,0.526,0.055
	c0.032-0.079,0.079-0.268,0.134-0.573c0.063-0.307,0.094-0.691,0.103-1.171c0.007-0.636-0.047-1.083-0.181-1.358
	c-0.125-0.275-0.393-0.439-0.801-0.503c-0.408-0.063-1.021-0.086-1.845-0.07h-14.891c-0.817-0.016-1.438,0.008-1.846,0.07
	c-0.4,0.063-0.675,0.228-0.801,0.503c-0.134,0.275-0.188,0.723-0.181,1.358c0.008,0.479,0.039,0.864,0.102,1.171
	c0.055,0.306,0.102,0.494,0.133,0.573c0.063-0.016,0.236-0.039,0.526-0.055c0.291-0.024,0.628-0.047,1.005-0.063
	c0.385-0.016,0.738-0.023,1.061-0.023h5.513V130.313L179.071,130.313z M150.844,130.596c0,0.33-0.008,0.676-0.023,1.061
	c-0.016,0.377-0.04,0.715-0.063,1.005c-0.016,0.291-0.039,0.464-0.055,0.526c0.047-0.016,0.211-0.023,0.502-0.039
	c0.291-0.016,0.636-0.031,1.037-0.047c0.401-0.016,0.793-0.031,1.186-0.04c0.385-0.008,0.707-0.016,0.95-0.016h10.698
	c0.825,0.008,1.437-0.016,1.845-0.07c0.409-0.063,0.675-0.228,0.801-0.503c0.133-0.275,0.188-0.73,0.181-1.358
	c-0.008-0.479-0.04-0.864-0.102-1.171c-0.055-0.306-0.102-0.494-0.134-0.573c-0.063,0.017-0.235,0.039-0.526,0.056
	c-0.291,0.023-0.628,0.047-1.005,0.063c-0.385,0.016-0.738,0.023-1.06,0.023h-8.53c-0.337,0-0.675,0.008-1.013,0.023
	s-0.613,0.031-0.825,0.047v-9.966h5.655c0.322,0,0.676,0.007,1.045,0.022c0.377,0.017,0.707,0.04,0.989,0.063
	c0.283,0.016,0.456,0.039,0.511,0.055c0.031-0.078,0.086-0.274,0.157-0.597c0.079-0.314,0.118-0.715,0.126-1.194
	c0-0.321-0.024-0.62-0.063-0.91c-0.039-0.291-0.079-0.534-0.125-0.738c-0.047-0.196-0.079-0.322-0.094-0.378
	c-0.055,0.016-0.228,0.04-0.511,0.056c-0.283,0.023-0.612,0.047-0.989,0.063c-0.369,0.016-0.723,0.023-1.045,0.023h-4.948
	c-0.33,0-0.675,0.008-1.045,0.023c-0.369,0.017-0.683,0.032-0.942,0.048c-0.267,0.016-0.4,0.023-0.417,0.023
	c-0.023-0.023-0.039-0.047-0.063-0.071l1.759-0.636v-7.249c0.133,0.008,0.33,0.016,0.589,0.031s0.534,0.023,0.833,0.039
	c0.298,0.008,0.581,0.016,0.84,0.016h8.106c0.322,0,0.675,0.008,1.06,0.023c0.377,0.017,0.715,0.039,1.005,0.063
	c0.291,0.016,0.463,0.039,0.526,0.055c0.032-0.079,0.079-0.268,0.134-0.573c0.063-0.307,0.094-0.691,0.102-1.171
	c0.008-0.636-0.047-1.083-0.181-1.358c-0.126-0.275-0.393-0.439-0.801-0.503c-0.408-0.063-1.021-0.086-1.845-0.07h-10.65
	c-0.244,0-0.565-0.008-0.958-0.016c-0.393-0.008-0.793-0.023-1.202-0.04c-0.408-0.015-0.762-0.031-1.052-0.047
	s-0.463-0.031-0.51-0.039c0,0.008,0.007,0.103,0.023,0.283c0.016,0.181,0.032,0.408,0.047,0.684
	c0.016,0.274,0.032,0.564,0.047,0.863s0.023,0.565,0.023,0.809V130.596L150.844,130.596z M130.25,119.145h3.22
	c1.241,0,2.38,0.134,3.432,0.393c1.053,0.251,1.964,0.62,2.749,1.1c0.786,0.472,1.39,1.045,1.83,1.712
	c0.432,0.66,0.652,1.398,0.66,2.215c-0.008,0.88-0.212,1.657-0.621,2.333c-0.4,0.676-0.974,1.241-1.712,1.696
	c-0.73,0.456-1.603,0.81-2.592,1.037c-0.998,0.235-2.089,0.354-3.275,0.354c-0.628-0.009-1.304-0.087-2.011-0.236
	c-0.707-0.149-1.398-0.329-2.065-0.55c-0.66-0.22-1.249-0.432-1.759-0.636l-1.061,3.62c0.181,0.079,0.519,0.174,1.029,0.291
	c0.502,0.118,1.115,0.243,1.838,0.361c0.723,0.126,1.5,0.228,2.333,0.314c0.833,0.086,1.665,0.133,2.497,0.133
	c1.705,0,3.26-0.188,4.65-0.565c1.397-0.376,2.6-0.935,3.604-1.664c1.005-0.739,1.783-1.649,2.325-2.733
	c0.542-1.084,0.817-2.333,0.825-3.755c-0.007-1.115-0.283-2.136-0.816-3.055c-0.542-0.919-1.296-1.721-2.278-2.396
	c-0.982-0.684-2.144-1.218-3.479-1.61c1.147-0.338,2.144-0.785,2.984-1.335c0.841-0.55,1.493-1.187,1.948-1.916
	c0.463-0.73,0.691-1.532,0.699-2.411c-0.008-1.187-0.259-2.239-0.762-3.143c-0.502-0.911-1.217-1.673-2.144-2.293
	c-0.927-0.613-2.034-1.084-3.307-1.398c-1.28-0.313-2.694-0.471-4.25-0.471c-0.832,0-1.665,0.047-2.497,0.133
	c-0.833,0.087-1.61,0.188-2.333,0.314c-0.723,0.118-1.335,0.243-1.838,0.361c-0.511,0.117-0.849,0.212-1.029,0.291l1.061,3.62
	c0.51-0.204,1.1-0.416,1.759-0.636c0.667-0.22,1.359-0.4,2.065-0.55c0.707-0.149,1.382-0.228,2.011-0.235
	c1.037,0,1.987,0.086,2.867,0.259c0.88,0.173,1.649,0.432,2.301,0.77c0.66,0.338,1.17,0.754,1.532,1.249
	c0.369,0.503,0.549,1.076,0.558,1.729c-0.008,0.604-0.204,1.146-0.597,1.641c-0.385,0.487-0.935,0.911-1.634,1.265
	c-0.699,0.354-1.516,0.62-2.45,0.81c-0.935,0.195-1.948,0.29-3.047,0.29h-3.22V119.145L130.25,119.145z M107.819,121.053
	l1.414-5.631c0.314-1.288,0.589-2.403,0.817-3.33c0.228-0.927,0.448-1.688,0.676-2.286c0.22-0.597,0.479-1.028,0.786-1.312
	c0.306-0.282,0.691-0.424,1.162-0.424s0.856,0.142,1.163,0.424c0.306,0.283,0.565,0.723,0.793,1.312
	c0.22,0.598,0.447,1.359,0.667,2.286c0.228,0.927,0.503,2.042,0.817,3.33l1.579,6.314h-8.875l-3.032,0.235l-0.039-0.094
	L107.819,121.053L107.819,121.053z M101.74,130.313c-0.055,0.236-0.118,0.503-0.18,0.794c-0.063,0.29-0.125,0.573-0.189,0.848
	c-0.055,0.275-0.102,0.495-0.142,0.676c-0.031,0.173-0.055,0.267-0.055,0.274c0.055,0.017,0.181,0.048,0.377,0.079
	c0.204,0.039,0.448,0.078,0.739,0.109c0.29,0.032,0.589,0.048,0.911,0.048c0.322,0,0.621-0.016,0.911-0.048
	c0.291-0.031,0.534-0.07,0.738-0.109c0.196-0.031,0.322-0.063,0.377-0.079v-0.188c0-0.165,0.008-0.385,0.032-0.659
	c0.023-0.283,0.047-0.573,0.094-0.888c0.039-0.306,0.094-0.597,0.157-0.856l1.265-5.042h11.805l1.257,5.042
	c0.063,0.26,0.118,0.551,0.157,0.856c0.047,0.314,0.071,0.604,0.094,0.888c0.023,0.274,0.032,0.494,0.032,0.659v0.188
	c0.055,0.017,0.18,0.048,0.377,0.079c0.204,0.039,0.447,0.078,0.738,0.109c0.291,0.032,0.589,0.048,0.911,0.048
	c0.322,0,0.621-0.016,0.912-0.048c0.29-0.031,0.534-0.07,0.738-0.109c0.197-0.031,0.322-0.063,0.377-0.079
	c0-0.008-0.023-0.102-0.055-0.274c-0.04-0.181-0.086-0.4-0.142-0.676c-0.063-0.274-0.125-0.558-0.188-0.848
	c-0.063-0.291-0.126-0.558-0.181-0.794l-3.911-16.116c-0.314-1.335-0.66-2.584-1.045-3.746c-0.376-1.163-0.832-2.191-1.351-3.071
	c-0.526-0.888-1.163-1.578-1.917-2.081c-0.746-0.495-1.649-0.754-2.709-0.762c-1.061,0.008-1.964,0.267-2.71,0.762
	c-0.753,0.503-1.39,1.193-1.916,2.081c-0.519,0.88-0.974,1.908-1.351,3.071c-0.385,1.162-0.73,2.411-1.044,3.746L101.74,130.313
	L101.74,130.313z M78.272,130.313c0,0.322-0.008,0.676-0.024,1.061c-0.016,0.377-0.039,0.715-0.063,1.006
	c-0.016,0.29-0.039,0.463-0.055,0.525c0.055,0.017,0.181,0.048,0.393,0.079c0.204,0.039,0.455,0.07,0.754,0.103
	c0.298,0.039,0.605,0.055,0.926,0.055c0.322,0,0.629-0.016,0.927-0.055c0.298-0.032,0.549-0.063,0.754-0.103
	c0.212-0.031,0.337-0.063,0.393-0.079c-0.016-0.063-0.04-0.235-0.056-0.525c-0.023-0.291-0.047-0.629-0.063-1.006
	c-0.016-0.385-0.023-0.738-0.023-1.061v-21.323l-2.121-0.825l0.047-0.102l2.977,0.243h10.218v22.007
	c0,0.322-0.008,0.676-0.023,1.045c-0.016,0.377-0.039,0.699-0.063,0.989c-0.016,0.283-0.04,0.448-0.055,0.511
	c0.055,0.016,0.181,0.047,0.393,0.095c0.204,0.047,0.463,0.086,0.754,0.125c0.299,0.04,0.605,0.063,0.927,0.063
	c0.322,0,0.628-0.023,0.927-0.063c0.298-0.039,0.55-0.078,0.754-0.125c0.212-0.048,0.337-0.079,0.393-0.095
	c-0.016-0.063-0.04-0.228-0.055-0.511c-0.023-0.29-0.047-0.612-0.063-0.989c-0.016-0.369-0.023-0.723-0.023-1.045v-22.808
	c0-0.33,0.008-0.684,0.023-1.061c0.016-0.377,0.04-0.715,0.063-1.005c0.016-0.291,0.04-0.472,0.055-0.526
	c-0.055-0.016-0.181-0.048-0.393-0.079c-0.205-0.039-0.456-0.078-0.754-0.109s-0.604-0.048-0.927-0.048
	c-0.738,0-1.374,0.008-1.908,0.017c-0.526,0.008-1.014,0.016-1.469,0.031c-0.448,0.016-0.935,0.023-1.445,0.031
	s-1.116,0.016-1.822,0.016h-1.696c-0.699,0-1.304-0.008-1.814-0.016c-0.518-0.008-0.998-0.016-1.453-0.031
	c-0.456-0.016-0.943-0.023-1.477-0.031c-0.526-0.009-1.162-0.017-1.901-0.017c-0.321,0-0.628,0.024-0.926,0.063
	c-0.299,0.039-0.55,0.078-0.754,0.125c-0.212,0.048-0.338,0.079-0.393,0.095c0.016,0.055,0.04,0.228,0.055,0.511
	c0.023,0.282,0.047,0.612,0.063,0.989c0.016,0.369,0.024,0.715,0.024,1.045V130.313L78.272,130.313z M57.868,121.053l1.414-5.631
	c0.314-1.288,0.589-2.403,0.817-3.33s0.448-1.688,0.676-2.286c0.219-0.597,0.479-1.028,0.785-1.312
	c0.307-0.282,0.691-0.424,1.163-0.424c0.471,0,0.856,0.142,1.162,0.424c0.307,0.283,0.565,0.723,0.793,1.312
	c0.22,0.598,0.448,1.359,0.668,2.286c0.228,0.927,0.502,2.042,0.817,3.33l1.579,6.314h-8.875l-3.032,0.235l-0.039-0.094
	L57.868,121.053L57.868,121.053z M51.789,130.313c-0.055,0.236-0.118,0.503-0.181,0.794c-0.063,0.29-0.125,0.573-0.188,0.848
	c-0.055,0.275-0.102,0.495-0.142,0.676c-0.031,0.173-0.055,0.267-0.055,0.274c0.055,0.017,0.181,0.048,0.377,0.079
	c0.204,0.039,0.448,0.078,0.738,0.109c0.291,0.032,0.589,0.048,0.911,0.048c0.322,0,0.621-0.016,0.911-0.048
	c0.291-0.031,0.534-0.07,0.738-0.109c0.196-0.031,0.322-0.063,0.377-0.079v-0.188c0-0.165,0.008-0.385,0.031-0.659
	c0.024-0.283,0.047-0.573,0.095-0.888c0.039-0.306,0.094-0.597,0.157-0.856l1.265-5.042h11.805l1.256,5.042
	c0.063,0.26,0.118,0.551,0.157,0.856c0.047,0.314,0.071,0.604,0.094,0.888c0.023,0.274,0.031,0.494,0.031,0.659v0.188
	c0.055,0.017,0.181,0.048,0.377,0.079c0.204,0.039,0.448,0.078,0.738,0.109c0.291,0.032,0.589,0.048,0.911,0.048
	s0.621-0.016,0.911-0.048c0.291-0.031,0.534-0.07,0.738-0.109c0.196-0.031,0.322-0.063,0.377-0.079c0-0.008-0.023-0.102-0.055-0.274
	c-0.04-0.181-0.086-0.4-0.141-0.676c-0.063-0.274-0.126-0.558-0.189-0.848c-0.063-0.291-0.125-0.558-0.181-0.794l-3.912-16.116
	c-0.314-1.335-0.66-2.584-1.044-3.746c-0.377-1.163-0.833-2.191-1.351-3.071c-0.526-0.888-1.163-1.578-1.917-2.081
	c-0.746-0.495-1.649-0.754-2.709-0.762c-1.061,0.008-1.964,0.267-2.71,0.762c-0.754,0.503-1.39,1.193-1.916,2.081
	c-0.519,0.88-0.974,1.908-1.351,3.071c-0.385,1.162-0.73,2.411-1.045,3.746L51.789,130.313L51.789,130.313z M32.232,119.145h3.22
	c1.241,0,2.38,0.134,3.432,0.393c1.053,0.251,1.964,0.62,2.749,1.1c0.786,0.472,1.391,1.045,1.83,1.712
	c0.432,0.66,0.652,1.398,0.66,2.215c-0.008,0.88-0.212,1.657-0.621,2.333c-0.4,0.676-0.974,1.241-1.712,1.696
	c-0.73,0.456-1.603,0.81-2.592,1.037c-0.998,0.235-2.089,0.354-3.275,0.354c-0.628-0.009-1.304-0.087-2.01-0.236
	c-0.707-0.149-1.398-0.329-2.065-0.55c-0.66-0.22-1.249-0.432-1.76-0.636l-1.06,3.62c0.181,0.079,0.518,0.174,1.029,0.291
	c0.503,0.118,1.115,0.243,1.838,0.361c0.722,0.126,1.5,0.228,2.333,0.314c0.833,0.086,1.665,0.133,2.498,0.133
	c1.705,0,3.259-0.188,4.65-0.565c1.398-0.376,2.6-0.935,3.604-1.664c1.005-0.739,1.783-1.649,2.325-2.733s0.817-2.333,0.824-3.755
	c-0.007-1.115-0.282-2.136-0.816-3.055c-0.542-0.919-1.296-1.721-2.278-2.396c-0.981-0.684-2.144-1.218-3.479-1.61
	c1.147-0.338,2.144-0.785,2.985-1.335c0.84-0.55,1.492-1.187,1.948-1.916c0.463-0.73,0.691-1.532,0.699-2.411
	c-0.008-1.187-0.259-2.239-0.762-3.143c-0.502-0.911-1.217-1.673-2.145-2.293c-0.926-0.613-2.034-1.084-3.306-1.398
	c-1.28-0.313-2.694-0.471-4.249-0.471c-0.833,0-1.665,0.047-2.498,0.133c-0.833,0.087-1.61,0.188-2.333,0.314
	c-0.723,0.118-1.335,0.243-1.838,0.361c-0.511,0.117-0.848,0.212-1.029,0.291l1.06,3.62c0.511-0.204,1.1-0.416,1.76-0.636
	c0.667-0.22,1.358-0.4,2.065-0.55c0.707-0.149,1.382-0.228,2.01-0.235c1.037,0,1.987,0.086,2.867,0.259
	c0.88,0.173,1.649,0.432,2.301,0.77c0.66,0.338,1.171,0.754,1.532,1.249c0.369,0.503,0.55,1.076,0.558,1.729
	c-0.008,0.604-0.204,1.146-0.597,1.641c-0.384,0.487-0.934,0.911-1.633,1.265s-1.516,0.62-2.45,0.81
	c-0.935,0.195-1.948,0.29-3.048,0.29h-3.22V119.145z"/>
</svg>
