<?xml version="1.0" encoding="utf-8"?>
<!-- Generator: Adobe Illustrator 17.0.0, SVG Export Plug-In . SVG Version: 6.00 Build 0)  -->
<!DOCTYPE svg PUBLIC "-//W3C//DTD SVG 1.1//EN" "http://www.w3.org/Graphics/SVG/1.1/DTD/svg11.dtd">
<svg version="1.1" id="Layer_1" xmlns="http://www.w3.org/2000/svg" xmlns:xlink="http://www.w3.org/1999/xlink" x="0px" y="0px"
	 width="442.921px" height="178.08px" viewBox="0 0 442.921 178.08" enable-background="new 0 0 442.921 178.08"
	 xml:space="preserve">
<g>
	<path fill="#83CC72" d="M199.925,150.905h242.996V43.757H199.925c0,0,12.075,24.926,12.075,54.326
		C212,124.464,199.925,150.905,199.925,150.905z"/>
	<g>
		<path fill="#663333" d="M88.182,167.899c0.955,3.069,1.619,6.495,2.041,10.181h18.351c4.918-39.809,18.635-51.937,18.635-51.937
			c-6.936,1.221-15.532,9.654-15.532,9.654c0.582-12.794,10.007-30.707,10.007-30.707c-15.648,12.33-20.411,33.441-20.411,33.441
			c-6.84-30.183-24.433-40.419-24.433-40.419c12.618,16.749,9.017,37.22,9.017,37.22c-13.685-11.166-27.994-7.909-27.994-7.909
			S77.469,133.47,88.182,167.899L88.182,167.899z"/>
		<path fill="#8AC273" d="M128.226,49.775c-2.687-8.717-2.077-13.72-2.077-13.72c-15.076,9.556-30.721,25.154-33.062,41.935
			c-0.901,6.458,0.573,11.744,2.955,15.669c1.679,2.767,4.625,5.081,8.084,6.549c0.376-6.381,2.452-24.066,13.812-45.979
			c0,0-8.335,24.257-8.193,47.447c2.529,0.284,5.126,0.133,7.606-0.717c6.628-2.269,11.247-7.791,13.626-15.045
			C134.511,75.143,132.353,63.164,128.226,49.775L128.226,49.775z"/>
		<path fill="#089163" d="M169.887,99.083c2.598-7.755,5.656-11.081,5.656-11.081c-15.978-0.915-35.527,2.274-46.002,13.278
			c-4.031,4.235-5.719,8.856-6.035,12.961c-0.223,2.892,0.715,6.119,2.468,8.995c3.608-4.452,14.362-16.254,34.089-26.282
			c0,0-18.748,13.317-30.761,30.288c1.694,1.528,3.665,2.775,5.917,3.452c6.014,1.811,12.265,0.201,17.79-3.841
			C161.21,120.851,165.897,110.995,169.887,99.083L169.887,99.083z"/>
		<path fill="#BDDE7D" d="M165.403,55.621c0.089-5.693,1.417-8.545,1.417-8.545c-10.795,2.761-23.094,8.998-27.725,18.508
			c-1.782,3.66-1.928,7.082-1.272,9.873c0.462,1.966,1.765,3.909,3.534,5.448c1.456-3.715,6.104-13.812,17.078-24.625
			c0,0-9.632,12.789-14.026,26.582c1.447,0.657,3.017,1.068,4.654,1.043c4.372-0.067,8.181-2.453,10.995-6.299
			C164.234,71.894,165.267,64.366,165.403,55.621L165.403,55.621z"/>
		<path fill="#296E57" d="M156.448,23.314c-0.523-5.67,0.491-8.648,0.491-8.648c-10.436,3.904-21.995,11.427-25.577,21.378
			c-1.379,3.83-1.156,7.248-0.204,9.952c0.67,1.905,2.174,3.698,4.098,5.037c1.048-3.85,4.585-14.388,14.335-26.317
			c0,0-8.203,13.75-11.09,27.935c1.508,0.498,3.114,0.738,4.738,0.537c4.34-0.535,7.87-3.317,10.255-7.443
			C157.034,39.618,157.252,32.023,156.448,23.314L156.448,23.314z"/>
		<path fill="#9ED15C" d="M155.078,157.782c5.319-2.03,8.461-1.856,8.461-1.856c-6.57-8.999-16.927-18.105-27.476-18.876
			c-4.06-0.296-7.291,0.838-9.639,2.483c-1.654,1.159-2.976,3.089-3.748,5.304c3.99-0.028,15.092,0.541,29.205,6.719
			c0,0-15.45-4.198-29.889-3.159c-0.073,1.587,0.127,3.198,0.758,4.709c1.684,4.035,5.314,6.686,9.93,7.871
			C139.534,162.736,146.907,160.901,155.078,157.782L155.078,157.782z"/>
		<path fill="#63BF4F" d="M181.009,136.026c3.454-2.752,5.816-3.362,5.816-3.362c-6.973-5.105-16.77-9.399-24.747-7.487
			c-3.07,0.736-5.192,2.334-6.54,4.102c-0.95,1.246-1.473,2.983-1.522,4.801c2.942-0.958,11.281-3.15,23.166-1.904
			c0,0-12.407,0.532-22.834,4.697c0.319,1.19,0.846,2.333,1.668,3.302c2.194,2.586,5.5,3.692,9.19,3.482
			C170.685,143.344,175.703,140.253,181.009,136.026L181.009,136.026z"/>
		<path fill="#63BF4F" d="M119.597,20.677c-0.241-4.41,0.632-6.689,0.632-6.689c-8.202,2.723-17.379,8.218-20.445,15.828
			c-1.179,2.928-1.106,5.584-0.447,7.707c0.465,1.496,1.578,2.929,3.031,4.023c0.924-2.954,3.971-11.019,11.875-19.982
			c0,0-6.757,10.419-9.407,21.33c1.155,0.429,2.392,0.662,3.657,0.554c3.38-0.289,6.197-2.343,8.165-5.471
			C119.578,33.331,119.967,27.45,119.597,20.677L119.597,20.677z"/>
		<path fill="#8CC275" d="M14.933,128.016c-5.442-3.848-9.055-4.563-9.055-4.563c10.065-8.296,24.455-15.612,36.64-13.42
			c4.689,0.843,8.025,3.069,10.208,5.616c1.54,1.795,2.477,4.368,2.709,7.103c-4.516-1.19-17.27-3.771-35.07-0.867
			c0,0,18.74-0.271,34.811,5.103c-0.378,1.82-1.074,3.589-2.228,5.119c-3.083,4.086-7.969,6.038-13.547,6.041
			C31.12,138.151,23.292,133.927,14.933,128.016L14.933,128.016z"/>
		<path fill="#CFDE6B" d="M41.477,65.609c-1.093-8.105-3.471-11.948-3.471-11.948c15.864,2.106,34.466,8.916,42.683,21.694
			c3.163,4.917,3.951,9.774,3.49,13.865c-0.326,2.883-1.854,5.875-4.116,8.37c-2.706-5.051-11.049-18.665-28.537-32.225
			c0,0,15.908,16.606,24.516,35.534c-1.952,1.182-4.122,2.036-6.46,2.278c-6.248,0.647-12.084-2.111-16.749-7.119
			C45.904,88.62,43.154,78.059,41.477,65.609L41.477,65.609z"/>
		<path fill="#087D5C" d="M73.197,30.508c2.173-5.7,1.985-9.065,1.985-9.065c9.644,7.034,19.404,18.126,20.235,29.427
			c0.319,4.349-0.895,7.812-2.655,10.328c-1.241,1.773-3.308,3.19-5.681,4.018c0.028-4.274-0.586-16.167-7.211-31.285
			c0,0,4.504,16.551,3.398,32.02c-1.7,0.08-3.426-0.135-5.045-0.81c-4.324-1.803-7.166-5.69-8.438-10.634
			C67.897,47.163,69.86,39.263,73.197,30.508L73.197,30.508z"/>
		<path fill="#4A8C42" d="M35.599,22.423c-0.177-5.83-1.58-8.731-1.58-8.731c11.098,2.666,23.79,8.869,28.675,18.54
			c1.88,3.721,2.081,7.225,1.451,10.092c-0.444,2.021-1.749,4.031-3.538,5.634c-1.546-3.783-6.459-14.056-17.863-24.966
			c0,0,10.058,12.955,14.766,27.016c-1.471,0.695-3.074,1.14-4.75,1.139c-4.479-0.003-8.416-2.39-11.356-6.287
			C37.04,39.072,35.87,31.378,35.599,22.423L35.599,22.423z"/>
		<path fill="#1C6E54" d="M6.977,90.541C3.037,85.884,0,84.423,0,84.423c10.819-5.044,25.246-8.229,35.541-3.495
			c3.962,1.822,6.407,4.558,7.759,7.316c0.953,1.943,1.194,4.437,0.773,6.914c-3.729-2.089-14.438-7.299-30.875-8.804
			c0,0,16.667,4.054,29.675,12.499c-0.752,1.526-1.774,2.934-3.146,4.025c-3.668,2.915-8.444,3.524-13.387,2.248
			C18.998,103.23,13.03,97.694,6.977,90.541L6.977,90.541z"/>
		<path fill="#BDDE7D" d="M11.023,59.841c-1.659-3.482-3.281-4.865-3.281-4.865c7.428-1.342,16.762-0.966,22.295,3.587
			c2.129,1.752,3.184,3.819,3.566,5.723c0.269,1.341,0.015,2.905-0.642,4.352c-1.943-1.878-7.652-6.788-17.461-10.356
			c0,0,9.539,5.164,16.133,12.421c-0.706,0.812-1.557,1.509-2.573,1.954c-2.712,1.191-5.73,0.795-8.548-0.782
			C16.329,69.535,13.572,65.189,11.023,59.841L11.023,59.841z"/>
		<path fill="#248A4F" d="M79.512,5.847C79.756,1.997,79.011,0,79.011,0c7.143,2.44,15.116,7.308,17.737,13.977
			c1.009,2.566,0.924,4.885,0.333,6.735c-0.417,1.303-1.4,2.546-2.677,3.491c-0.785-2.586-3.386-9.653-10.221-17.54
			c0,0,5.823,9.15,8.056,18.699c-1.012,0.366-2.094,0.561-3.198,0.457c-2.949-0.278-5.394-2.092-7.089-4.84
			C79.434,16.898,79.138,11.759,79.512,5.847L79.512,5.847z"/>
		<path fill="#1C6E54" d="M54.434,110.779c-1.741-3.417-3.389-4.747-3.389-4.747c7.346-1.53,16.631-1.403,22.249,2.975
			c2.162,1.685,3.265,3.711,3.694,5.592c0.303,1.326,0.092,2.887-0.522,4.342c-1.98-1.815-7.784-6.543-17.625-9.829
			c0,0,9.615,4.879,16.359,11.917c-0.68,0.826-1.508,1.54-2.505,2.01c-2.663,1.255-5.674,0.941-8.514-0.551
			C59.962,120.272,57.107,116.026,54.434,110.779L54.434,110.779z"/>
		<path fill="#63BF4F" d="M50.669,156.515c-3.829,0.212-5.712,1.181-5.712,1.181c1.57-7.337,5.438-15.779,11.714-19.149
			c2.415-1.297,4.714-1.486,6.609-1.119c1.336,0.259,2.678,1.083,3.76,2.232c-2.461,1.078-9.131,4.475-16.115,12.148
			c0,0,8.349-6.822,17.512-10.147c0.481,0.956,0.799,2.002,0.826,3.104c0.072,2.943-1.432,5.57-3.945,7.565
			C61.587,155.295,56.549,156.19,50.669,156.515L50.669,156.515z"/>
		<path fill="#1C6E54" d="M194.032,66.828c2.219-3.818,4.2-5.244,4.2-5.244c-8.351-2.226-19.038-2.671-25.778,2.007
			c-2.593,1.8-3.99,4.06-4.604,6.197c-0.433,1.505-0.289,3.314,0.324,5.026c2.394-1.962,9.368-7.03,20.895-10.184
			c0,0-11.367,5-19.572,12.666c0.729,0.993,1.636,1.867,2.753,2.471c2.983,1.614,6.466,1.443,9.828-0.092
			C187.07,77.394,190.624,72.693,194.032,66.828L194.032,66.828z"/>
		<path fill="#BDDE7D" d="M186.806,105.7c3.105,0.253,4.729-0.32,4.729-0.32c-2.075,5.733-6.122,12.1-11.545,14.119
			c-2.087,0.777-3.958,0.675-5.443,0.171c-1.046-0.356-2.035-1.168-2.78-2.213c2.1-0.596,7.844-2.593,14.313-7.997
			c0,0-7.474,4.569-15.218,6.232c-0.281-0.822-0.422-1.699-0.322-2.589c0.268-2.377,1.769-4.325,4.012-5.653
			C177.883,105.475,182.037,105.312,186.806,105.7L186.806,105.7z"/>
		<path fill="#FFFFFF" d="M238.841,75.198h3.196c1.232,0,2.363,0.132,3.407,0.39c1.045,0.249,1.949,0.616,2.729,1.092
			c0.78,0.468,1.38,1.037,1.817,1.7c0.429,0.655,0.647,1.388,0.655,2.199c-0.008,0.873-0.21,1.645-0.616,2.316
			c-0.398,0.671-0.967,1.232-1.7,1.684c-0.725,0.452-1.591,0.803-2.573,1.029c-0.99,0.234-2.074,0.351-3.251,0.351
			c-0.624-0.008-1.294-0.086-1.996-0.234c-0.701-0.148-1.387-0.327-2.05-0.546c-0.655-0.218-1.24-0.429-1.747-0.632l-1.052,3.594
			c0.179,0.078,0.515,0.172,1.021,0.289c0.499,0.117,1.107,0.242,1.824,0.359c0.717,0.125,1.489,0.226,2.316,0.312
			c0.826,0.086,1.653,0.132,2.479,0.132c1.692,0,3.236-0.187,4.616-0.561c1.387-0.374,2.581-0.928,3.578-1.653
			c0.999-0.733,1.77-1.637,2.308-2.713c0.538-1.076,0.811-2.316,0.819-3.727c-0.008-1.107-0.281-2.121-0.811-3.033
			c-0.538-0.912-1.287-1.708-2.261-2.378c-0.975-0.678-2.129-1.209-3.454-1.598c1.138-0.335,2.128-0.78,2.963-1.325
			c0.834-0.546,1.481-1.177,1.934-1.902c0.46-0.725,0.686-1.521,0.694-2.394c-0.008-1.178-0.257-2.222-0.756-3.119
			c-0.499-0.904-1.208-1.661-2.129-2.277c-0.92-0.608-2.019-1.076-3.282-1.388c-1.271-0.312-2.675-0.468-4.218-0.468
			c-0.826,0-1.653,0.047-2.479,0.132c-0.827,0.086-1.599,0.187-2.316,0.312c-0.717,0.117-1.325,0.242-1.824,0.359
			c-0.507,0.117-0.842,0.21-1.021,0.288l1.052,3.594c0.507-0.203,1.092-0.413,1.747-0.632c0.663-0.218,1.349-0.397,2.05-0.546
			c0.702-0.148,1.373-0.226,1.996-0.234c1.029,0,1.973,0.086,2.846,0.257c0.874,0.171,1.637,0.429,2.285,0.764
			c0.655,0.335,1.162,0.749,1.52,1.24c0.366,0.499,0.546,1.068,0.553,1.716c-0.008,0.6-0.203,1.138-0.593,1.629
			c-0.382,0.484-0.928,0.905-1.622,1.255c-0.694,0.351-1.505,0.616-2.432,0.803c-0.928,0.195-1.934,0.288-3.026,0.288h-3.196V75.198
			L238.841,75.198z M258.254,86.285c-0.054,0.234-0.117,0.499-0.179,0.787c-0.062,0.289-0.125,0.569-0.188,0.842
			c-0.054,0.273-0.101,0.491-0.14,0.67c-0.031,0.171-0.054,0.265-0.054,0.273c0.054,0.016,0.179,0.047,0.374,0.078
			c0.203,0.039,0.445,0.078,0.733,0.109c0.288,0.031,0.584,0.047,0.904,0.047c0.32,0,0.616-0.016,0.905-0.047
			c0.289-0.031,0.53-0.07,0.733-0.109c0.195-0.031,0.32-0.062,0.375-0.078v-0.187c0-0.164,0.008-0.382,0.031-0.655
			c0.023-0.281,0.047-0.569,0.094-0.881c0.039-0.304,0.094-0.592,0.156-0.85l1.255-5.005h11.719l1.248,5.005
			c0.062,0.257,0.117,0.546,0.156,0.85c0.046,0.312,0.07,0.6,0.093,0.881c0.023,0.273,0.031,0.491,0.031,0.655v0.187
			c0.054,0.016,0.179,0.047,0.374,0.078c0.202,0.039,0.444,0.078,0.733,0.109c0.288,0.031,0.584,0.047,0.904,0.047
			s0.616-0.016,0.904-0.047c0.289-0.031,0.53-0.07,0.733-0.109c0.195-0.031,0.32-0.062,0.374-0.078c0-0.008-0.023-0.101-0.054-0.273
			c-0.04-0.179-0.086-0.398-0.14-0.67c-0.063-0.273-0.125-0.554-0.187-0.842c-0.063-0.289-0.125-0.554-0.179-0.787l-3.883-15.999
			c-0.312-1.325-0.655-2.565-1.037-3.719c-0.374-1.154-0.826-2.175-1.341-3.048c-0.522-0.881-1.154-1.567-1.903-2.066
			c-0.74-0.491-1.637-0.749-2.689-0.756c-1.053,0.008-1.949,0.265-2.69,0.756c-0.748,0.499-1.38,1.185-1.903,2.066
			c-0.514,0.873-0.967,1.894-1.341,3.048c-0.382,1.154-0.725,2.394-1.037,3.719L258.254,86.285L258.254,86.285z M264.289,77.092
			l1.403-5.59c0.312-1.279,0.585-2.386,0.811-3.306c0.226-0.92,0.445-1.676,0.67-2.269c0.218-0.593,0.476-1.021,0.78-1.302
			c0.304-0.281,0.686-0.421,1.154-0.421c0.468,0,0.85,0.14,1.154,0.421c0.304,0.281,0.562,0.717,0.788,1.302
			c0.218,0.592,0.444,1.349,0.663,2.269c0.226,0.92,0.499,2.027,0.811,3.306l1.568,6.269h-8.811l-3.01,0.234l-0.039-0.094
			L264.289,77.092L264.289,77.092z M284.545,86.285c0,0.32-0.008,0.671-0.024,1.053c-0.016,0.374-0.039,0.71-0.062,0.998
			c-0.016,0.289-0.039,0.46-0.054,0.522c0.054,0.016,0.179,0.047,0.389,0.078c0.203,0.039,0.453,0.07,0.749,0.101
			c0.296,0.039,0.6,0.054,0.919,0.054c0.32,0,0.624-0.016,0.92-0.054c0.296-0.031,0.545-0.063,0.748-0.101
			c0.211-0.031,0.335-0.062,0.39-0.078c-0.016-0.062-0.039-0.234-0.055-0.522c-0.023-0.289-0.047-0.624-0.062-0.998
			c-0.016-0.382-0.023-0.733-0.023-1.053V65.116l-2.105-0.819l0.047-0.101l2.956,0.242h10.143v21.847
			c0,0.32-0.008,0.671-0.023,1.037c-0.015,0.374-0.039,0.694-0.062,0.982c-0.016,0.281-0.039,0.444-0.055,0.507
			c0.055,0.016,0.179,0.047,0.39,0.094c0.203,0.047,0.46,0.086,0.749,0.125c0.296,0.039,0.6,0.062,0.92,0.062
			c0.32,0,0.624-0.023,0.92-0.062c0.296-0.039,0.546-0.078,0.749-0.125c0.21-0.047,0.335-0.078,0.39-0.094
			c-0.016-0.062-0.039-0.226-0.055-0.507c-0.023-0.289-0.047-0.608-0.062-0.982c-0.015-0.366-0.023-0.717-0.023-1.037V63.643
			c0-0.328,0.008-0.678,0.023-1.053c0.016-0.374,0.039-0.71,0.062-0.998c0.016-0.289,0.039-0.468,0.055-0.522
			c-0.055-0.016-0.179-0.047-0.39-0.078c-0.203-0.039-0.452-0.078-0.749-0.109c-0.296-0.031-0.6-0.047-0.92-0.047
			c-0.733,0-1.364,0.008-1.894,0.016c-0.522,0.008-1.006,0.016-1.458,0.031c-0.444,0.016-0.928,0.023-1.435,0.031
			c-0.507,0.008-1.107,0.016-1.809,0.016h-1.684c-0.694,0-1.294-0.008-1.801-0.016c-0.514-0.008-0.99-0.016-1.442-0.031
			c-0.453-0.016-0.936-0.024-1.466-0.031c-0.522-0.008-1.154-0.016-1.887-0.016c-0.319,0-0.623,0.023-0.919,0.062
			c-0.296,0.039-0.546,0.078-0.749,0.125c-0.21,0.047-0.335,0.078-0.389,0.094c0.016,0.054,0.039,0.226,0.054,0.507
			c0.023,0.281,0.046,0.608,0.062,0.982c0.016,0.367,0.024,0.71,0.024,1.037V86.285L284.545,86.285z M307.842,86.285
			c-0.054,0.234-0.117,0.499-0.179,0.787c-0.062,0.289-0.125,0.569-0.188,0.842c-0.054,0.273-0.101,0.491-0.141,0.67
			c-0.031,0.171-0.054,0.265-0.054,0.273c0.054,0.016,0.179,0.047,0.374,0.078c0.203,0.039,0.445,0.078,0.733,0.109
			c0.288,0.031,0.584,0.047,0.904,0.047c0.32,0,0.616-0.016,0.905-0.047c0.289-0.031,0.53-0.07,0.733-0.109
			c0.195-0.031,0.319-0.062,0.374-0.078v-0.187c0-0.164,0.008-0.382,0.031-0.655c0.023-0.281,0.047-0.569,0.094-0.881
			c0.039-0.304,0.094-0.592,0.156-0.85l1.255-5.005h11.719l1.248,5.005c0.062,0.257,0.117,0.546,0.156,0.85
			c0.047,0.312,0.07,0.6,0.094,0.881c0.023,0.273,0.031,0.491,0.031,0.655v0.187c0.054,0.016,0.179,0.047,0.374,0.078
			c0.203,0.039,0.444,0.078,0.733,0.109c0.288,0.031,0.584,0.047,0.904,0.047s0.616-0.016,0.904-0.047
			c0.289-0.031,0.53-0.07,0.733-0.109c0.195-0.031,0.32-0.062,0.374-0.078c0-0.008-0.023-0.101-0.054-0.273
			c-0.039-0.179-0.086-0.398-0.14-0.67c-0.062-0.273-0.125-0.554-0.187-0.842c-0.062-0.289-0.125-0.554-0.179-0.787l-3.883-15.999
			c-0.312-1.325-0.655-2.565-1.037-3.719c-0.374-1.154-0.826-2.175-1.341-3.048c-0.522-0.881-1.154-1.567-1.902-2.066
			c-0.741-0.491-1.637-0.749-2.69-0.756c-1.053,0.008-1.949,0.265-2.69,0.756c-0.749,0.499-1.38,1.185-1.902,2.066
			c-0.514,0.873-0.967,1.894-1.341,3.048c-0.382,1.154-0.725,2.394-1.037,3.719L307.842,86.285L307.842,86.285z M313.876,77.092
			l1.404-5.59c0.312-1.279,0.585-2.386,0.811-3.306c0.226-0.92,0.444-1.676,0.67-2.269c0.218-0.593,0.476-1.021,0.78-1.302
			c0.304-0.281,0.686-0.421,1.154-0.421c0.468,0,0.85,0.14,1.154,0.421c0.304,0.281,0.562,0.717,0.787,1.302
			c0.219,0.592,0.445,1.349,0.663,2.269c0.226,0.92,0.499,2.027,0.811,3.306l1.567,6.269h-8.81l-3.01,0.234l-0.039-0.094
			L313.876,77.092L313.876,77.092z M336.144,75.198h3.197c1.232,0,2.363,0.132,3.407,0.39c1.045,0.249,1.949,0.616,2.729,1.092
			c0.78,0.468,1.38,1.037,1.817,1.7c0.429,0.655,0.647,1.388,0.655,2.199c-0.008,0.873-0.21,1.645-0.616,2.316
			c-0.398,0.671-0.967,1.232-1.7,1.684c-0.725,0.452-1.591,0.803-2.573,1.029c-0.99,0.234-2.074,0.351-3.251,0.351
			c-0.624-0.008-1.294-0.086-1.996-0.234c-0.701-0.148-1.388-0.327-2.05-0.546c-0.655-0.218-1.24-0.429-1.747-0.632l-1.052,3.594
			c0.179,0.078,0.514,0.172,1.021,0.289c0.499,0.117,1.107,0.242,1.824,0.359c0.717,0.125,1.489,0.226,2.316,0.312
			c0.826,0.086,1.653,0.132,2.479,0.132c1.692,0,3.236-0.187,4.616-0.561c1.388-0.374,2.581-0.928,3.579-1.653
			c0.998-0.733,1.77-1.637,2.308-2.713c0.538-1.076,0.811-2.316,0.818-3.727c-0.007-1.107-0.28-2.121-0.81-3.033
			c-0.538-0.912-1.287-1.708-2.261-2.378c-0.975-0.678-2.129-1.209-3.454-1.598c1.138-0.335,2.128-0.78,2.962-1.325
			c0.834-0.546,1.481-1.177,1.934-1.902c0.46-0.725,0.686-1.521,0.694-2.394c-0.008-1.178-0.257-2.222-0.756-3.119
			c-0.5-0.904-1.209-1.661-2.129-2.277c-0.92-0.608-2.019-1.076-3.282-1.388c-1.271-0.312-2.674-0.468-4.218-0.468
			c-0.826,0-1.653,0.047-2.479,0.132c-0.827,0.086-1.599,0.187-2.316,0.312c-0.718,0.117-1.325,0.242-1.824,0.359
			c-0.507,0.117-0.842,0.21-1.021,0.288l1.052,3.594c0.507-0.203,1.092-0.413,1.747-0.632c0.663-0.218,1.349-0.397,2.05-0.546
			c0.702-0.148,1.372-0.226,1.996-0.234c1.029,0,1.973,0.086,2.846,0.257c0.873,0.171,1.637,0.429,2.284,0.764
			c0.655,0.335,1.162,0.749,1.521,1.24c0.366,0.499,0.545,1.068,0.553,1.716c-0.008,0.6-0.203,1.138-0.593,1.629
			c-0.382,0.484-0.928,0.905-1.622,1.255c-0.694,0.351-1.505,0.616-2.432,0.803c-0.928,0.195-1.934,0.288-3.025,0.288h-3.197V75.198
			L336.144,75.198z M356.587,86.565c0,0.328-0.008,0.671-0.024,1.053c-0.016,0.374-0.039,0.71-0.062,0.998
			c-0.015,0.289-0.039,0.46-0.054,0.522c0.047-0.016,0.21-0.023,0.499-0.039c0.289-0.016,0.632-0.031,1.03-0.047
			s0.787-0.031,1.177-0.039c0.382-0.008,0.702-0.016,0.943-0.016h10.619c0.819,0.008,1.427-0.016,1.832-0.07
			c0.406-0.062,0.67-0.226,0.795-0.499c0.132-0.273,0.188-0.725,0.179-1.349c-0.008-0.476-0.039-0.858-0.101-1.162
			c-0.055-0.304-0.102-0.491-0.133-0.569c-0.062,0.016-0.234,0.039-0.522,0.054c-0.288,0.024-0.624,0.047-0.998,0.062
			c-0.382,0.016-0.733,0.024-1.052,0.024h-8.467c-0.335,0-0.671,0.008-1.005,0.023c-0.336,0.016-0.609,0.031-0.819,0.047v-9.894
			h5.614c0.32,0,0.67,0.008,1.037,0.023c0.374,0.016,0.702,0.039,0.982,0.062c0.281,0.016,0.453,0.039,0.507,0.055
			c0.031-0.078,0.086-0.273,0.156-0.592c0.078-0.312,0.117-0.71,0.125-1.185c0-0.32-0.023-0.616-0.062-0.905
			c-0.039-0.289-0.078-0.53-0.125-0.733c-0.047-0.195-0.078-0.32-0.094-0.374c-0.054,0.016-0.226,0.039-0.507,0.055
			c-0.28,0.023-0.608,0.047-0.982,0.062c-0.367,0.016-0.717,0.023-1.037,0.023h-4.912c-0.328,0-0.671,0.008-1.037,0.024
			s-0.678,0.031-0.936,0.047c-0.265,0.016-0.398,0.024-0.413,0.024c-0.023-0.024-0.039-0.047-0.062-0.07l1.747-0.632v-7.196
			c0.133,0.008,0.327,0.016,0.585,0.031c0.257,0.016,0.53,0.023,0.827,0.039c0.296,0.008,0.577,0.016,0.834,0.016h8.046
			c0.32,0,0.67,0.008,1.052,0.024c0.374,0.016,0.71,0.039,0.998,0.062c0.289,0.016,0.46,0.039,0.522,0.054
			c0.031-0.078,0.078-0.265,0.133-0.569c0.062-0.304,0.094-0.686,0.101-1.162c0.008-0.632-0.047-1.076-0.179-1.349
			c-0.125-0.273-0.39-0.437-0.795-0.499c-0.405-0.062-1.013-0.086-1.832-0.07h-10.573c-0.241,0-0.561-0.008-0.951-0.016
			c-0.39-0.008-0.788-0.024-1.193-0.039c-0.405-0.016-0.756-0.031-1.044-0.047c-0.289-0.016-0.46-0.031-0.507-0.039
			c0,0.008,0.007,0.101,0.023,0.281c0.016,0.179,0.031,0.405,0.047,0.678c0.015,0.273,0.031,0.561,0.047,0.857
			c0.016,0.297,0.024,0.562,0.024,0.803V86.565L356.587,86.565z M384.609,86.285c0,0.32-0.007,0.671-0.023,1.053
			c-0.016,0.374-0.039,0.71-0.062,0.998c-0.015,0.289-0.039,0.46-0.055,0.522c0.055,0.016,0.179,0.047,0.39,0.078
			c0.203,0.039,0.452,0.07,0.748,0.101c0.296,0.039,0.6,0.054,0.92,0.054c0.319,0,0.624-0.016,0.92-0.054
			c0.296-0.031,0.546-0.063,0.749-0.101c0.21-0.031,0.335-0.062,0.39-0.078c-0.016-0.062-0.039-0.234-0.054-0.522
			c-0.024-0.289-0.047-0.624-0.062-0.998c-0.016-0.382-0.023-0.733-0.023-1.053V65.046c-0.437-0.203-0.873-0.406-1.318-0.608h6.791
			c0.328,0,0.671,0.008,1.053,0.024c0.374,0.016,0.709,0.039,0.998,0.062c0.288,0.016,0.46,0.039,0.522,0.054
			c0.032-0.078,0.078-0.265,0.133-0.569c0.062-0.304,0.094-0.686,0.102-1.162c0.008-0.632-0.047-1.076-0.179-1.349
			c-0.125-0.273-0.39-0.437-0.795-0.499c-0.405-0.062-1.013-0.086-1.832-0.07h-14.783c-0.811-0.016-1.427,0.008-1.832,0.07
			c-0.398,0.062-0.671,0.226-0.795,0.499c-0.132,0.273-0.187,0.717-0.179,1.349c0.008,0.476,0.039,0.858,0.102,1.162
			c0.054,0.304,0.101,0.491,0.132,0.569c0.062-0.016,0.234-0.039,0.522-0.054c0.289-0.024,0.624-0.047,0.998-0.062
			c0.382-0.016,0.733-0.024,1.052-0.024h5.473V86.285L384.609,86.285z M400.561,86.565c0,0.328-0.008,0.671-0.024,1.053
			c-0.016,0.374-0.039,0.71-0.062,0.998c-0.016,0.289-0.039,0.46-0.054,0.522c0.047-0.016,0.21-0.023,0.499-0.039
			c0.289-0.016,0.632-0.031,1.029-0.047s0.788-0.031,1.177-0.039c0.382-0.008,0.702-0.016,0.943-0.016h10.619
			c0.819,0.008,1.427-0.016,1.832-0.07c0.406-0.062,0.671-0.226,0.796-0.499c0.132-0.273,0.187-0.725,0.179-1.349
			c-0.008-0.476-0.039-0.858-0.101-1.162c-0.055-0.304-0.101-0.491-0.133-0.569c-0.062,0.016-0.234,0.039-0.522,0.054
			c-0.288,0.024-0.623,0.047-0.998,0.062c-0.382,0.016-0.733,0.024-1.052,0.024h-8.467c-0.335,0-0.671,0.008-1.006,0.023
			c-0.335,0.016-0.608,0.031-0.818,0.047v-9.894h5.614c0.32,0,0.671,0.008,1.037,0.023c0.374,0.016,0.701,0.039,0.982,0.062
			c0.281,0.016,0.453,0.039,0.507,0.055c0.031-0.078,0.086-0.273,0.156-0.592c0.078-0.312,0.117-0.71,0.125-1.185
			c0-0.32-0.023-0.616-0.062-0.905c-0.039-0.289-0.078-0.53-0.125-0.733c-0.047-0.195-0.078-0.32-0.094-0.374
			c-0.054,0.016-0.226,0.039-0.507,0.055c-0.281,0.023-0.608,0.047-0.982,0.062c-0.366,0.016-0.718,0.023-1.037,0.023h-4.912
			c-0.327,0-0.67,0.008-1.037,0.024c-0.366,0.016-0.678,0.031-0.936,0.047c-0.265,0.016-0.398,0.024-0.413,0.024
			c-0.023-0.024-0.039-0.047-0.062-0.07l1.747-0.632v-7.196c0.132,0.008,0.328,0.016,0.584,0.031
			c0.257,0.016,0.531,0.023,0.827,0.039c0.296,0.008,0.577,0.016,0.834,0.016h8.046c0.32,0,0.671,0.008,1.052,0.024
			c0.375,0.016,0.709,0.039,0.998,0.062c0.288,0.016,0.46,0.039,0.522,0.054c0.031-0.078,0.078-0.265,0.133-0.569
			c0.062-0.304,0.094-0.686,0.101-1.162c0.008-0.632-0.047-1.076-0.179-1.349c-0.125-0.273-0.39-0.437-0.796-0.499
			c-0.405-0.062-1.013-0.086-1.832-0.07h-10.573c-0.242,0-0.561-0.008-0.951-0.016c-0.39-0.008-0.787-0.024-1.193-0.039
			c-0.405-0.016-0.756-0.031-1.044-0.047c-0.289-0.016-0.46-0.031-0.507-0.039c0,0.008,0.008,0.101,0.023,0.281
			c0.016,0.179,0.031,0.405,0.047,0.678c0.016,0.273,0.031,0.561,0.047,0.857c0.016,0.297,0.024,0.562,0.024,0.803V86.565
			L400.561,86.565z M263.54,132.177v-9.45h5.099c1.271,0.008,2.378,0.218,3.321,0.632c0.943,0.421,1.676,1.006,2.199,1.762
			s0.788,1.645,0.795,2.659c-0.008,0.741-0.179,1.411-0.522,2.012c-0.351,0.6-0.834,1.115-1.45,1.551
			c-0.616,0.429-1.333,0.764-2.152,0.998c-0.818,0.234-1.707,0.351-2.658,0.351c-0.444,0-0.936-0.024-1.466-0.062
			c-0.522-0.039-1.061-0.102-1.606-0.179C264.562,132.371,264.039,132.286,263.54,132.177L263.54,132.177z M259.704,133.019
			c0,0.32-0.008,0.671-0.023,1.037c-0.015,0.374-0.039,0.702-0.062,0.982c-0.016,0.281-0.039,0.452-0.055,0.507
			c0.016,0.008,0.047,0.008,0.078,0.008c0.039,0,0.085,0,0.14-0.008c0.748,0.008,1.544,0.031,2.393,0.078
			c0.85,0.039,1.7,0.086,2.558,0.14c0.85,0.054,1.653,0.101,2.409,0.14c0.756,0.039,1.411,0.062,1.965,0.062
			c1.411-0.008,2.713-0.203,3.906-0.592c1.193-0.382,2.23-0.936,3.111-1.661c0.881-0.717,1.575-1.583,2.058-2.581
			c0.491-1.006,0.74-2.121,0.749-3.353c-0.008-1.255-0.265-2.417-0.772-3.485c-0.514-1.06-1.24-1.996-2.183-2.784
			c-0.951-0.795-2.082-1.411-3.4-1.856c-1.317-0.437-2.783-0.663-4.405-0.671h-4.631v-6.307l-1.014-0.554
			c0.437-0.133,1.014-0.249,1.739-0.343c0.733-0.094,1.543-0.164,2.432-0.211c0.897-0.047,1.809-0.07,2.737-0.07
			c0.865,0,1.699,0.023,2.495,0.078c0.803,0.047,1.505,0.141,2.129,0.281c0.616,0.132,1.083,0.327,1.411,0.577l0.094-0.078v-4.6
			h-3.275c-0.452,0-1.076,0.016-1.856,0.047c-0.779,0.023-1.653,0.054-2.612,0.101c-0.959,0.039-1.933,0.078-2.916,0.125
			c-0.99,0.039-1.917,0.07-2.783,0.101c-0.866,0.031-1.598,0.047-2.191,0.047h-0.367c0.023,0.156,0.047,0.374,0.07,0.655
			c0.024,0.281,0.04,0.584,0.055,0.92c0.008,0.327,0.015,0.647,0.015,0.951V133.019L259.704,133.019z M282.674,133.393
			c0,0.328-0.008,0.671-0.023,1.053c-0.016,0.374-0.039,0.71-0.062,0.998c-0.016,0.289-0.039,0.46-0.054,0.522
			c0.047-0.016,0.21-0.023,0.499-0.039c0.289-0.016,0.632-0.031,1.029-0.047c0.398-0.016,0.788-0.031,1.177-0.039
			c0.382-0.008,0.702-0.016,0.943-0.016h10.62c0.818,0.008,1.427-0.016,1.832-0.07c0.406-0.062,0.671-0.226,0.795-0.499
			c0.132-0.273,0.187-0.725,0.179-1.349c-0.008-0.476-0.039-0.858-0.102-1.162c-0.054-0.304-0.101-0.491-0.132-0.569
			c-0.062,0.016-0.234,0.039-0.522,0.054c-0.289,0.023-0.624,0.047-0.998,0.062c-0.382,0.016-0.733,0.024-1.052,0.024h-8.467
			c-0.335,0-0.671,0.008-1.006,0.023c-0.335,0.016-0.608,0.031-0.819,0.047v-9.894h5.614c0.32,0,0.671,0.008,1.037,0.023
			c0.374,0.016,0.702,0.039,0.982,0.062c0.281,0.016,0.452,0.039,0.507,0.055c0.031-0.078,0.086-0.273,0.156-0.592
			c0.078-0.312,0.117-0.71,0.125-1.185c0-0.32-0.023-0.616-0.062-0.905c-0.039-0.289-0.078-0.53-0.125-0.733
			c-0.047-0.195-0.078-0.32-0.094-0.374c-0.054,0.016-0.226,0.039-0.507,0.055c-0.281,0.023-0.608,0.047-0.982,0.062
			c-0.366,0.016-0.718,0.023-1.037,0.023h-4.912c-0.327,0-0.67,0.008-1.037,0.024c-0.366,0.016-0.678,0.031-0.936,0.047
			c-0.265,0.016-0.397,0.023-0.413,0.023c-0.023-0.023-0.039-0.047-0.062-0.07l1.747-0.632v-7.196
			c0.133,0.008,0.328,0.016,0.585,0.031c0.257,0.016,0.53,0.023,0.827,0.039c0.296,0.008,0.577,0.016,0.834,0.016h8.046
			c0.319,0,0.67,0.008,1.052,0.023c0.375,0.016,0.709,0.039,0.998,0.062c0.289,0.016,0.46,0.039,0.522,0.054
			c0.031-0.078,0.078-0.265,0.132-0.569c0.063-0.304,0.094-0.686,0.102-1.162c0.008-0.632-0.047-1.076-0.179-1.349
			c-0.125-0.273-0.39-0.437-0.795-0.499c-0.405-0.062-1.014-0.086-1.832-0.07h-10.573c-0.241,0-0.562-0.008-0.951-0.016
			c-0.39-0.008-0.787-0.023-1.193-0.039c-0.405-0.016-0.756-0.031-1.045-0.047c-0.289-0.016-0.46-0.031-0.507-0.039
			c0,0.008,0.008,0.101,0.023,0.281c0.015,0.179,0.031,0.405,0.046,0.678c0.016,0.273,0.031,0.561,0.047,0.857
			c0.016,0.297,0.023,0.562,0.023,0.803V133.393L282.674,133.393z M302.789,134.095c0.008,0.476,0.031,0.858,0.078,1.162
			c0.047,0.304,0.086,0.491,0.109,0.569h0.312h0.016l0,0h18.712c0.327,0,0.678,0.008,1.053,0.024
			c0.374,0.016,0.709,0.039,0.998,0.062c0.288,0.016,0.468,0.039,0.522,0.054c0.015-0.054,0.047-0.172,0.078-0.367
			c0.039-0.187,0.078-0.421,0.109-0.702c0.031-0.281,0.047-0.577,0.047-0.897c-0.008-0.476-0.039-0.881-0.101-1.209
			c-0.054-0.335-0.101-0.538-0.132-0.616c-0.055,0.016-0.187,0.039-0.413,0.054c-0.218,0.023-0.483,0.047-0.795,0.062
			c-0.312,0.016-0.624,0.024-0.944,0.024V110.47c0-0.328,0.008-0.678,0.023-1.053c0.016-0.374,0.039-0.71,0.062-0.998
			c0.015-0.289,0.039-0.468,0.054-0.522c-0.67-0.047-1.31-0.078-1.926-0.101c-0.616-0.016-1.177-0.031-1.692-0.031
			c-0.507-0.008-0.943-0.008-1.294-0.008h-2.713c-1.217,0.008-2.347,0.265-3.376,0.764c-1.037,0.499-1.949,1.185-2.728,2.074
			c-0.788,0.881-1.412,1.91-1.872,3.072c-0.46,1.17-0.733,2.425-0.803,3.766L305.51,130.5c-0.031,0.437-0.148,0.78-0.367,1.029
			c-0.21,0.249-0.46,0.429-0.748,0.546c-0.289,0.109-0.561,0.179-0.826,0.211c-0.265,0.023-0.46,0.039-0.592,0.031
			c-0.032,0.078-0.063,0.273-0.109,0.592C302.821,133.221,302.797,133.619,302.789,134.095L302.789,134.095L302.789,134.095z
			 M309.245,131.241l0.64-13.231c0.047-0.935,0.218-1.809,0.514-2.62c0.289-0.819,0.679-1.528,1.177-2.144
			c0.491-0.624,1.061-1.1,1.716-1.45c0.655-0.351,1.364-0.522,2.128-0.53h3.181v21.051h-10.572L309.245,131.241L309.245,131.241z"/>
		<path fill="#FFFFFF" d="M328.519,133.393c0,0.328-0.008,0.671-0.023,1.053c-0.016,0.374-0.039,0.71-0.062,0.998
			c-0.016,0.289-0.039,0.46-0.054,0.522c0.047-0.016,0.21-0.023,0.499-0.039c0.288-0.016,0.632-0.031,1.03-0.047
			c0.397-0.016,0.787-0.031,1.177-0.039c0.382-0.008,0.702-0.016,0.943-0.016h10.619c0.819,0.008,1.427-0.016,1.832-0.07
			c0.406-0.062,0.671-0.226,0.795-0.499c0.132-0.273,0.187-0.725,0.179-1.349c-0.008-0.476-0.039-0.858-0.101-1.162
			c-0.055-0.304-0.102-0.491-0.133-0.569c-0.062,0.016-0.234,0.039-0.522,0.054c-0.288,0.023-0.624,0.047-0.998,0.062
			c-0.382,0.016-0.733,0.024-1.053,0.024h-8.467c-0.335,0-0.671,0.008-1.006,0.023c-0.335,0.016-0.608,0.031-0.819,0.047v-9.894
			h5.614c0.32,0,0.671,0.008,1.037,0.023c0.374,0.016,0.702,0.039,0.982,0.062c0.281,0.016,0.452,0.039,0.507,0.055
			c0.031-0.078,0.085-0.273,0.156-0.592c0.078-0.312,0.117-0.71,0.125-1.185c0-0.32-0.023-0.616-0.063-0.905
			c-0.039-0.289-0.078-0.53-0.124-0.733c-0.047-0.195-0.079-0.32-0.094-0.374c-0.055,0.016-0.226,0.039-0.507,0.055
			c-0.281,0.023-0.608,0.047-0.982,0.062c-0.366,0.016-0.717,0.023-1.037,0.023h-4.912c-0.327,0-0.67,0.008-1.037,0.024
			c-0.367,0.016-0.679,0.031-0.936,0.047c-0.266,0.016-0.398,0.023-0.414,0.023c-0.023-0.023-0.039-0.047-0.062-0.07l1.747-0.632
			v-7.196c0.133,0.008,0.328,0.016,0.584,0.031c0.258,0.016,0.531,0.023,0.827,0.039c0.296,0.008,0.577,0.016,0.834,0.016h8.046
			c0.319,0,0.67,0.008,1.053,0.023c0.374,0.016,0.709,0.039,0.998,0.062c0.289,0.016,0.46,0.039,0.522,0.054
			c0.031-0.078,0.078-0.265,0.133-0.569c0.062-0.304,0.094-0.686,0.101-1.162c0.008-0.632-0.047-1.076-0.179-1.349
			c-0.125-0.273-0.39-0.437-0.795-0.499c-0.405-0.062-1.013-0.086-1.832-0.07h-10.572c-0.242,0-0.562-0.008-0.952-0.016
			c-0.39-0.008-0.787-0.023-1.193-0.039c-0.405-0.016-0.756-0.031-1.044-0.047c-0.289-0.016-0.46-0.031-0.507-0.039
			c0,0.008,0.008,0.101,0.023,0.281c0.015,0.179,0.031,0.405,0.047,0.678c0.015,0.273,0.031,0.561,0.047,0.857
			c0.016,0.297,0.023,0.562,0.023,0.803V133.393L328.519,133.393z M349.056,118.049c0.008,1.551,0.366,2.908,1.076,4.062
			c0.702,1.154,1.684,2.043,2.947,2.682c1.271,0.639,2.752,0.967,4.444,0.975c0.53,0,1.138-0.031,1.84-0.094
			c0.694-0.054,1.435-0.125,2.222-0.203c0.78-0.078,1.575-0.148,2.37-0.218c0.795-0.07,1.551-0.109,2.284-0.133l-2.214,1.302v6.689
			c0,0.32-0.008,0.671-0.023,1.037c-0.016,0.374-0.039,0.702-0.062,0.983c-0.016,0.281-0.039,0.452-0.055,0.507
			c0.055,0.016,0.179,0.047,0.39,0.094c0.203,0.047,0.452,0.086,0.748,0.125s0.6,0.062,0.92,0.062s0.624-0.023,0.92-0.062
			s0.546-0.078,0.749-0.125c0.211-0.047,0.335-0.078,0.39-0.094c-0.015-0.055-0.039-0.226-0.054-0.507
			c-0.024-0.281-0.047-0.608-0.062-0.983c-0.016-0.366-0.023-0.717-0.023-1.037V110.47c0-0.328,0.008-0.671,0.023-1.053
			c0.016-0.374,0.039-0.71,0.062-0.998c0.016-0.289,0.039-0.46,0.054-0.522c-0.054-0.016-0.179-0.047-0.39-0.078
			c-0.203-0.039-0.452-0.078-0.749-0.109c-0.296-0.031-0.6-0.047-0.92-0.047s-0.624,0.016-0.92,0.047
			c-0.296,0.031-0.546,0.07-0.748,0.109c-0.211,0.031-0.335,0.062-0.39,0.078c0.016,0.062,0.039,0.234,0.055,0.522
			c0.023,0.288,0.047,0.624,0.062,0.998c0.016,0.382,0.023,0.725,0.023,1.053v11.258c-0.538,0.14-1.13,0.265-1.785,0.382
			c-0.655,0.109-1.31,0.203-1.973,0.273c-0.655,0.07-1.263,0.109-1.809,0.109c-1.825-0.008-3.212-0.499-4.148-1.474
			c-0.943-0.975-1.411-2.401-1.419-4.28v-6.269c0-0.328,0.008-0.671,0.023-1.053c0.016-0.374,0.039-0.71,0.062-0.998
			c0.016-0.289,0.039-0.46,0.055-0.522c-0.055-0.016-0.179-0.047-0.39-0.078c-0.203-0.039-0.452-0.078-0.749-0.109
			c-0.296-0.031-0.601-0.047-0.92-0.047c-0.32,0-0.624,0.016-0.92,0.047c-0.296,0.031-0.546,0.07-0.749,0.109
			c-0.21,0.031-0.335,0.062-0.39,0.078c0.016,0.062,0.039,0.234,0.055,0.522c0.023,0.288,0.047,0.624,0.062,0.998
			c0.016,0.382,0.023,0.725,0.023,1.053V118.049L349.056,118.049z M373.382,133.112c0,0.32-0.008,0.671-0.023,1.052
			c-0.016,0.374-0.039,0.71-0.062,0.998c-0.016,0.289-0.039,0.46-0.054,0.522c0.054,0.016,0.179,0.047,0.39,0.078
			c0.203,0.039,0.452,0.07,0.749,0.101c0.296,0.039,0.6,0.054,0.92,0.054c0.32,0,0.624-0.016,0.92-0.054
			c0.296-0.031,0.546-0.063,0.748-0.101c0.21-0.031,0.335-0.062,0.39-0.078c-0.016-0.062-0.039-0.234-0.055-0.522
			c-0.023-0.289-0.047-0.624-0.062-0.998c-0.016-0.382-0.023-0.733-0.023-1.052v-8.724l-1.154-0.819h2.947l9.106,11.555
			c0.187,0.234,0.437,0.413,0.749,0.553c0.32,0.133,0.67,0.234,1.068,0.296c0.39,0.054,0.795,0.086,1.224,0.086
			c0.304,0,0.6-0.008,0.896-0.023c0.304-0.016,0.569-0.07,0.803-0.148c0.242-0.086,0.421-0.211,0.538-0.398
			c-0.047-0.054-0.164-0.179-0.343-0.374c-0.179-0.203-0.39-0.429-0.616-0.694c-0.233-0.265-0.452-0.522-0.663-0.764l-9.317-11.469
			l8.374-12.186c0.187-0.257,0.413-0.522,0.67-0.787c0.258-0.273,0.492-0.507,0.702-0.702c0.218-0.203,0.351-0.327,0.405-0.382
			c-0.117-0.187-0.289-0.32-0.53-0.405c-0.242-0.086-0.507-0.148-0.811-0.171c-0.304-0.024-0.601-0.031-0.904-0.031
			c-0.429,0-0.843,0.023-1.248,0.086c-0.398,0.055-0.756,0.148-1.076,0.289c-0.312,0.132-0.554,0.32-0.717,0.561l-8.093,12.163
			h-2.011V110.47c0-0.32,0.008-0.671,0.023-1.037c0.015-0.374,0.039-0.702,0.062-0.982c0.016-0.281,0.039-0.452,0.055-0.507
			c-0.055-0.016-0.18-0.047-0.39-0.094c-0.203-0.047-0.452-0.086-0.748-0.125c-0.296-0.039-0.6-0.062-0.92-0.062
			c-0.32,0-0.624,0.023-0.92,0.062c-0.297,0.039-0.546,0.078-0.749,0.125c-0.21,0.047-0.335,0.078-0.39,0.094
			c0.016,0.054,0.039,0.226,0.054,0.507c0.023,0.281,0.047,0.608,0.062,0.982c0.016,0.367,0.023,0.717,0.023,1.037V133.112
			L373.382,133.112z M395.79,133.112c-0.055,0.234-0.117,0.499-0.179,0.787c-0.062,0.289-0.125,0.569-0.187,0.842
			c-0.054,0.273-0.101,0.491-0.14,0.67c-0.031,0.171-0.054,0.265-0.054,0.273c0.054,0.016,0.179,0.047,0.374,0.078
			c0.202,0.039,0.445,0.078,0.733,0.109c0.288,0.031,0.585,0.047,0.904,0.047c0.32,0,0.616-0.016,0.905-0.047
			c0.289-0.031,0.53-0.07,0.733-0.109c0.195-0.031,0.32-0.062,0.374-0.078v-0.187c0-0.164,0.008-0.382,0.031-0.655
			c0.023-0.281,0.047-0.569,0.094-0.881c0.039-0.304,0.094-0.592,0.156-0.85l1.255-5.005h11.719l1.248,5.005
			c0.062,0.257,0.117,0.546,0.156,0.85c0.047,0.312,0.07,0.6,0.094,0.881c0.023,0.273,0.031,0.491,0.031,0.655v0.187
			c0.055,0.016,0.179,0.047,0.375,0.078c0.203,0.039,0.444,0.078,0.732,0.109c0.289,0.031,0.585,0.047,0.905,0.047
			s0.616-0.016,0.905-0.047c0.288-0.031,0.53-0.07,0.733-0.109c0.195-0.031,0.32-0.062,0.374-0.078c0-0.008-0.023-0.102-0.054-0.273
			c-0.039-0.179-0.086-0.398-0.14-0.67c-0.062-0.273-0.125-0.554-0.187-0.842s-0.125-0.554-0.179-0.787l-3.883-15.999
			c-0.312-1.325-0.655-2.565-1.037-3.719c-0.375-1.154-0.827-2.175-1.341-3.048c-0.522-0.881-1.154-1.567-1.902-2.066
			c-0.741-0.491-1.637-0.749-2.69-0.756c-1.053,0.008-1.949,0.265-2.69,0.756c-0.749,0.499-1.38,1.185-1.902,2.066
			c-0.515,0.873-0.967,1.894-1.341,3.048c-0.382,1.154-0.725,2.394-1.037,3.719L395.79,133.112L395.79,133.112z M401.824,123.92
			l1.403-5.59c0.312-1.279,0.585-2.386,0.811-3.306c0.226-0.92,0.444-1.676,0.67-2.269c0.218-0.593,0.476-1.021,0.78-1.302
			c0.304-0.281,0.686-0.421,1.154-0.421c0.468,0,0.85,0.14,1.154,0.421c0.304,0.281,0.562,0.717,0.787,1.302
			c0.219,0.592,0.445,1.349,0.663,2.269c0.226,0.92,0.499,2.027,0.811,3.306l1.567,6.269h-8.81l-3.01,0.234l-0.039-0.094
			L401.824,123.92L401.824,123.92z"/>
	</g>
</g>
</svg>
